<svg width="24" height="24" viewBox="0 0 24 24" fill="none" xmlns="http://www.w3.org/2000/svg">
<path d="M12 2C5.99999 2 5.99999 8 5.99999 8V9C5.99999 9 5.97749 8.99805 5.93749 8.99805C5.59749 8.99805 3.99999 9.06853 3.99999 10.3945C3.99999 11.9395 5.69684 12 5.96484 12H5.99999C5.99999 13 4.34767 14.1704 3.26367 14.4414C2.25367 14.8334 2.01299 15.5028 1.99999 16.0098C1.99199 16.3128 2.06546 16.5573 2.10546 16.6523C2.48246 17.5373 3.60221 17.9941 4.69921 17.9941C4.73721 19.4331 5.7757 20 6.4707 20C7.2647 20 8.10546 19.6113 8.10546 19.6113C8.14646 19.6453 9.42499 21 12 21C14.575 21 15.8545 19.6453 15.8965 19.6113C15.8965 19.6113 16.7343 20 17.5293 20C18.2243 20 19.2628 19.4331 19.3008 17.9941C20.3978 17.9941 21.5175 17.5373 21.8945 16.6523C21.9345 16.5573 22.008 16.3128 22 16.0098C21.987 15.5028 21.7463 14.8334 20.7363 14.4414C19.6523 14.1704 18 13 18 12H18.0351C18.3031 12 20 11.9395 20 10.3945C20 9.06853 18.4025 8.99805 18.0625 8.99805C18.0225 8.99805 18 9 18 9V8C18 8 18 2 12 2ZM12 4C15.653 4 15.985 7.073 16 8V12C16 13.864 17.747 15.2971 19.209 15.9941H17.3516L17.3008 17.9434C17.3008 17.9534 17.2988 17.9627 17.2988 17.9727C17.0968 17.9317 16.8644 17.8549 16.7344 17.7969L15.6055 17.2754L14.6367 18.0586L14.5566 18.125L14.4941 18.1836C14.4081 18.2666 13.599 19 12 19C10.401 19 9.5909 18.2676 9.5039 18.1836L9.42773 18.1094L9.36132 18.0566L8.39648 17.293L7.27734 17.791C7.13934 17.853 6.90417 17.9317 6.70117 17.9727C6.70017 17.9637 6.69921 17.9534 6.69921 17.9434L6.64843 15.9961H4.79101C6.25301 15.2981 7.99999 13.864 7.99999 12V8C7.99999 7.332 8.19299 4 12 4Z" fill="white"/>
</svg>
