<svg width="312" height="122" viewBox="0 0 312 122" fill="none" xmlns="http://www.w3.org/2000/svg">
<g filter="url(#filter0_d_98_220)">
<path d="M4.16 27V1.8H13.34C14.672 1.8 15.872 2.076 16.94 2.628C18.02 3.168 18.872 3.948 19.496 4.968C20.132 5.976 20.45 7.17 20.45 8.55C20.45 9.162 20.36 9.78 20.18 10.404C20 11.028 19.724 11.592 19.352 12.096C18.98 12.588 18.5 12.954 17.912 13.194C18.692 13.386 19.328 13.734 19.82 14.238C20.312 14.742 20.696 15.336 20.972 16.02C21.248 16.692 21.434 17.382 21.53 18.09C21.638 18.786 21.692 19.434 21.692 20.034C21.692 21.366 21.362 22.554 20.702 23.598C20.042 24.642 19.154 25.47 18.038 26.082C16.934 26.694 15.71 27 14.366 27H4.16ZM8.552 23.238H13.916C14.636 23.238 15.284 23.064 15.86 22.716C16.436 22.368 16.898 21.888 17.246 21.276C17.594 20.664 17.768 19.968 17.768 19.188C17.768 18.516 17.594 17.88 17.246 17.28C16.898 16.68 16.436 16.194 15.86 15.822C15.284 15.45 14.636 15.264 13.916 15.264H8.552V23.238ZM8.552 11.556H12.836C13.724 11.556 14.48 11.28 15.104 10.728C15.74 10.176 16.058 9.444 16.058 8.532C16.058 7.56 15.74 6.828 15.104 6.336C14.48 5.832 13.724 5.58 12.836 5.58H8.552V11.556ZM23.8669 27L23.8489 9H28.2409L28.2589 10.602C28.8709 9.954 29.6029 9.444 30.4549 9.072C31.3069 8.688 32.2249 8.496 33.2089 8.496C33.8689 8.496 34.5289 8.592 35.1889 8.784L33.4609 13.212C33.0049 13.032 32.5489 12.942 32.0929 12.942C31.3849 12.942 30.7369 13.116 30.1489 13.464C29.5729 13.8 29.1109 14.262 28.7629 14.85C28.4269 15.426 28.2589 16.068 28.2589 16.776V27H23.8669ZM48.4965 9H52.8885V27H48.4965L48.2985 24.768C47.8065 25.572 47.1525 26.226 46.3365 26.73C45.5325 27.222 44.5785 27.468 43.4745 27.468C42.1425 27.468 40.8945 27.216 39.7305 26.712C38.5665 26.208 37.5405 25.512 36.6525 24.624C35.7765 23.736 35.0865 22.71 34.5825 21.546C34.0905 20.382 33.8445 19.134 33.8445 17.802C33.8445 16.518 34.0785 15.312 34.5465 14.184C35.0265 13.056 35.6925 12.066 36.5445 11.214C37.3965 10.362 38.3805 9.696 39.4965 9.216C40.6125 8.736 41.8125 8.496 43.0965 8.496C44.2845 8.496 45.3465 8.76 46.2825 9.288C47.2305 9.816 48.0345 10.488 48.6945 11.304L48.4965 9ZM43.3665 23.238C44.3025 23.238 45.1305 23.004 45.8505 22.536C46.5705 22.068 47.1345 21.438 47.5425 20.646C47.9505 19.842 48.1545 18.96 48.1545 18C48.1545 17.028 47.9505 16.146 47.5425 15.354C47.1345 14.55 46.5645 13.914 45.8325 13.446C45.1125 12.978 44.2905 12.744 43.3665 12.744C42.4425 12.744 41.5965 12.984 40.8285 13.464C40.0725 13.932 39.4665 14.562 39.0105 15.354C38.5665 16.146 38.3445 17.028 38.3445 18C38.3445 18.972 38.5725 19.854 39.0285 20.646C39.4845 21.438 40.0905 22.068 40.8465 22.536C41.6145 23.004 42.4545 23.238 43.3665 23.238ZM71.5233 15.624V27H67.1313V16.776C67.1313 16.068 66.9573 15.426 66.6093 14.85C66.2613 14.262 65.7933 13.8 65.2053 13.464C64.6293 13.116 63.9873 12.942 63.2793 12.942C62.5713 12.942 61.9233 13.116 61.3353 13.464C60.7593 13.8 60.2973 14.262 59.9493 14.85C59.6133 15.426 59.4453 16.068 59.4453 16.776V27H55.0533L55.0353 9H59.4273L59.4453 10.602C60.0573 9.954 60.7893 9.444 61.6413 9.072C62.4933 8.688 63.4113 8.496 64.3953 8.496C65.7033 8.496 66.8973 8.82 67.9773 9.468C69.0573 10.104 69.9153 10.962 70.5513 12.042C71.1993 13.11 71.5233 14.304 71.5233 15.624ZM86.926 -2.14577e-06H91.318V27H86.926V24.75C86.35 25.554 85.624 26.208 84.748 26.712C83.872 27.216 82.858 27.468 81.706 27.468C80.398 27.468 79.174 27.222 78.034 26.73C76.894 26.238 75.886 25.56 75.01 24.696C74.146 23.82 73.468 22.812 72.976 21.672C72.484 20.532 72.238 19.308 72.238 18C72.238 16.692 72.484 15.468 72.976 14.328C73.468 13.188 74.146 12.186 75.01 11.322C75.886 10.446 76.894 9.762 78.034 9.27C79.174 8.778 80.398 8.532 81.706 8.532C82.858 8.532 83.872 8.784 84.748 9.288C85.624 9.78 86.35 10.434 86.926 11.25V-2.14577e-06ZM81.76 23.238C82.696 23.238 83.524 23.004 84.244 22.536C84.964 22.068 85.528 21.438 85.936 20.646C86.344 19.842 86.548 18.96 86.548 18C86.548 17.028 86.344 16.146 85.936 15.354C85.528 14.55 84.958 13.914 84.226 13.446C83.506 12.978 82.684 12.744 81.76 12.744C80.836 12.744 79.99 12.984 79.222 13.464C78.466 13.932 77.86 14.562 77.404 15.354C76.96 16.146 76.738 17.028 76.738 18C76.738 18.972 76.966 19.854 77.422 20.646C77.878 21.438 78.484 22.068 79.24 22.536C80.008 23.004 80.848 23.238 81.76 23.238ZM117.899 15.624V27H113.507V16.776C113.507 16.068 113.333 15.426 112.985 14.85C112.637 14.262 112.169 13.8 111.581 13.464C111.005 13.116 110.363 12.942 109.655 12.942C108.947 12.942 108.299 13.116 107.711 13.464C107.135 13.8 106.673 14.262 106.325 14.85C105.989 15.426 105.821 16.068 105.821 16.776V27H101.429L101.411 9H105.803L105.821 10.602C106.433 9.954 107.165 9.444 108.017 9.072C108.869 8.688 109.787 8.496 110.771 8.496C112.079 8.496 113.273 8.82 114.353 9.468C115.433 10.104 116.291 10.962 116.927 12.042C117.575 13.11 117.899 14.304 117.899 15.624ZM127.613 27.468C125.957 27.468 124.445 27.042 123.077 26.19C121.721 25.338 120.635 24.192 119.819 22.752C119.015 21.312 118.613 19.722 118.613 17.982C118.613 16.674 118.847 15.45 119.315 14.31C119.783 13.158 120.425 12.15 121.241 11.286C122.069 10.41 123.029 9.726 124.121 9.234C125.213 8.742 126.377 8.496 127.613 8.496C129.017 8.496 130.301 8.796 131.465 9.396C132.641 9.984 133.637 10.794 134.453 11.826C135.269 12.858 135.863 14.034 136.235 15.354C136.607 16.674 136.691 18.054 136.487 19.494H123.329C123.497 20.166 123.773 20.772 124.157 21.312C124.541 21.84 125.027 22.266 125.615 22.59C126.203 22.902 126.869 23.064 127.613 23.076C128.381 23.088 129.077 22.908 129.701 22.536C130.337 22.152 130.865 21.636 131.285 20.988L135.767 22.032C135.035 23.628 133.943 24.936 132.491 25.956C131.039 26.964 129.413 27.468 127.613 27.468ZM123.185 16.2H132.041C131.909 15.48 131.627 14.832 131.195 14.256C130.775 13.668 130.253 13.2 129.629 12.852C129.005 12.504 128.333 12.33 127.613 12.33C126.893 12.33 126.227 12.504 125.615 12.852C125.003 13.188 124.481 13.65 124.049 14.238C123.629 14.814 123.341 15.468 123.185 16.2ZM146.42 27H142.064L136.052 9H140.354L144.26 20.646L148.148 9H152.486L156.374 20.646L160.28 9H164.582L158.57 27H154.214L150.308 15.3L146.42 27Z" fill="#A790CF"/>
<path d="M62.3675 70V44.8H66.7595V70H62.3675ZM86.6841 58.624V70H82.2921V59.776C82.2921 59.068 82.1181 58.426 81.7701 57.85C81.4221 57.262 80.9541 56.8 80.3661 56.464C79.7901 56.116 79.1481 55.942 78.4401 55.942C77.7321 55.942 77.0841 56.116 76.4961 56.464C75.9201 56.8 75.4581 57.262 75.1101 57.85C74.7741 58.426 74.6061 59.068 74.6061 59.776V70H70.2141L70.1961 52H74.5881L74.6061 53.602C75.2181 52.954 75.9501 52.444 76.8021 52.072C77.6541 51.688 78.5721 51.496 79.5561 51.496C80.8641 51.496 82.0581 51.82 83.1381 52.468C84.2181 53.104 85.0761 53.962 85.7121 55.042C86.3601 56.11 86.6841 57.304 86.6841 58.624ZM98.4783 56.392H94.9863V70H90.5943V56.392H87.9303V52H90.5943V46.348H94.9863V52H98.4783V56.392ZM107.791 70.468C106.135 70.468 104.623 70.042 103.255 69.19C101.899 68.338 100.813 67.192 99.9968 65.752C99.1928 64.312 98.7908 62.722 98.7908 60.982C98.7908 59.674 99.0248 58.45 99.4928 57.31C99.9608 56.158 100.603 55.15 101.419 54.286C102.247 53.41 103.207 52.726 104.299 52.234C105.391 51.742 106.555 51.496 107.791 51.496C109.195 51.496 110.479 51.796 111.643 52.396C112.819 52.984 113.815 53.794 114.631 54.826C115.447 55.858 116.041 57.034 116.413 58.354C116.785 59.674 116.869 61.054 116.665 62.494H103.507C103.675 63.166 103.951 63.772 104.335 64.312C104.719 64.84 105.205 65.266 105.793 65.59C106.381 65.902 107.047 66.064 107.791 66.076C108.559 66.088 109.255 65.908 109.879 65.536C110.515 65.152 111.043 64.636 111.463 63.988L115.945 65.032C115.213 66.628 114.121 67.936 112.669 68.956C111.217 69.964 109.591 70.468 107.791 70.468ZM103.363 59.2H112.219C112.087 58.48 111.805 57.832 111.373 57.256C110.953 56.668 110.431 56.2 109.807 55.852C109.183 55.504 108.511 55.33 107.791 55.33C107.071 55.33 106.405 55.504 105.793 55.852C105.181 56.188 104.659 56.65 104.227 57.238C103.807 57.814 103.519 58.468 103.363 59.2ZM118.171 70L118.153 52H122.545L122.563 53.602C123.175 52.954 123.907 52.444 124.759 52.072C125.611 51.688 126.529 51.496 127.513 51.496C128.173 51.496 128.833 51.592 129.493 51.784L127.765 56.212C127.309 56.032 126.853 55.942 126.397 55.942C125.689 55.942 125.041 56.116 124.453 56.464C123.877 56.8 123.415 57.262 123.067 57.85C122.731 58.426 122.563 59.068 122.563 59.776V70H118.171ZM142.801 52H147.193V70H142.801L142.603 67.768C142.111 68.572 141.457 69.226 140.641 69.73C139.837 70.222 138.883 70.468 137.779 70.468C136.447 70.468 135.199 70.216 134.035 69.712C132.871 69.208 131.845 68.512 130.957 67.624C130.081 66.736 129.391 65.71 128.887 64.546C128.395 63.382 128.149 62.134 128.149 60.802C128.149 59.518 128.383 58.312 128.851 57.184C129.331 56.056 129.997 55.066 130.849 54.214C131.701 53.362 132.685 52.696 133.801 52.216C134.917 51.736 136.117 51.496 137.401 51.496C138.589 51.496 139.651 51.76 140.587 52.288C141.535 52.816 142.339 53.488 142.999 54.304L142.801 52ZM137.671 66.238C138.607 66.238 139.435 66.004 140.155 65.536C140.875 65.068 141.439 64.438 141.847 63.646C142.255 62.842 142.459 61.96 142.459 61C142.459 60.028 142.255 59.146 141.847 58.354C141.439 57.55 140.869 56.914 140.137 56.446C139.417 55.978 138.595 55.744 137.671 55.744C136.747 55.744 135.901 55.984 135.133 56.464C134.377 56.932 133.771 57.562 133.315 58.354C132.871 59.146 132.649 60.028 132.649 61C132.649 61.972 132.877 62.854 133.333 63.646C133.789 64.438 134.395 65.068 135.151 65.536C135.919 66.004 136.759 66.238 137.671 66.238ZM160.148 64.582L164.108 66.724C163.28 67.852 162.242 68.758 160.994 69.442C159.746 70.126 158.384 70.468 156.908 70.468C155.252 70.468 153.74 70.042 152.372 69.19C151.016 68.338 149.93 67.198 149.114 65.77C148.31 64.33 147.908 62.74 147.908 61C147.908 59.68 148.142 58.45 148.61 57.31C149.078 56.158 149.72 55.15 150.536 54.286C151.364 53.41 152.324 52.726 153.416 52.234C154.508 51.742 155.672 51.496 156.908 51.496C158.384 51.496 159.746 51.838 160.994 52.522C162.242 53.206 163.28 54.124 164.108 55.276L160.148 57.4C159.728 56.92 159.23 56.548 158.654 56.284C158.09 56.02 157.508 55.888 156.908 55.888C156.044 55.888 155.264 56.128 154.568 56.608C153.872 57.076 153.32 57.7 152.912 58.48C152.504 59.248 152.3 60.088 152.3 61C152.3 61.9 152.504 62.74 152.912 63.52C153.32 64.288 153.872 64.906 154.568 65.374C155.264 65.842 156.044 66.076 156.908 66.076C157.532 66.076 158.126 65.944 158.69 65.68C159.254 65.404 159.74 65.038 160.148 64.582ZM175.548 56.392H172.056V70H167.664V56.392H165V52H167.664V46.348H172.056V52H175.548V56.392ZM177.081 52H181.473V70H177.081V52ZM179.313 49.678C178.665 49.678 178.119 49.468 177.675 49.048C177.231 48.616 177.009 48.076 177.009 47.428C177.009 46.792 177.231 46.258 177.675 45.826C178.119 45.394 178.659 45.178 179.295 45.178C179.931 45.178 180.465 45.394 180.897 45.826C181.341 46.258 181.563 46.792 181.563 47.428C181.563 48.076 181.347 48.616 180.915 49.048C180.483 49.468 179.949 49.678 179.313 49.678ZM194.939 70H189.269L182.717 51.982H187.397L192.113 64.942L196.811 51.982H201.491L194.939 70ZM209.93 70.468C208.274 70.468 206.762 70.042 205.394 69.19C204.038 68.338 202.952 67.192 202.136 65.752C201.332 64.312 200.93 62.722 200.93 60.982C200.93 59.674 201.164 58.45 201.632 57.31C202.1 56.158 202.742 55.15 203.558 54.286C204.386 53.41 205.346 52.726 206.438 52.234C207.53 51.742 208.694 51.496 209.93 51.496C211.334 51.496 212.618 51.796 213.782 52.396C214.958 52.984 215.954 53.794 216.77 54.826C217.586 55.858 218.18 57.034 218.552 58.354C218.924 59.674 219.008 61.054 218.804 62.494H205.646C205.814 63.166 206.09 63.772 206.474 64.312C206.858 64.84 207.344 65.266 207.932 65.59C208.52 65.902 209.186 66.064 209.93 66.076C210.698 66.088 211.394 65.908 212.018 65.536C212.654 65.152 213.182 64.636 213.602 63.988L218.084 65.032C217.352 66.628 216.26 67.936 214.808 68.956C213.356 69.964 211.73 70.468 209.93 70.468ZM205.502 59.2H214.358C214.226 58.48 213.944 57.832 213.512 57.256C213.092 56.668 212.57 56.2 211.946 55.852C211.322 55.504 210.65 55.33 209.93 55.33C209.21 55.33 208.544 55.504 207.932 55.852C207.32 56.188 206.798 56.65 206.366 57.238C205.946 57.814 205.658 58.468 205.502 59.2Z" fill="#4560BE"/>
<path d="M129.593 113.468C127.577 113.468 125.807 112.976 124.283 111.992C122.771 111.008 121.595 109.688 120.755 108.032C119.915 106.364 119.495 104.516 119.495 102.488V87.8H123.887V102.488C123.887 103.688 124.109 104.792 124.553 105.8C125.009 106.796 125.657 107.594 126.497 108.194C127.349 108.782 128.381 109.076 129.593 109.076C130.817 109.076 131.849 108.782 132.689 108.194C133.529 107.594 134.165 106.796 134.597 105.8C135.041 104.792 135.263 103.688 135.263 102.488V87.8H139.655V102.488C139.655 104.012 139.415 105.44 138.935 106.772C138.455 108.092 137.771 109.256 136.883 110.264C135.995 111.272 134.933 112.058 133.697 112.622C132.473 113.186 131.105 113.468 129.593 113.468ZM142.102 113V86H146.494V113H142.102ZM159.029 99.392H155.537V113H151.145V99.392H148.481V95H151.145V89.348H155.537V95H159.029V99.392ZM160.861 113L160.843 95H165.235L165.253 96.602C165.865 95.954 166.597 95.444 167.449 95.072C168.301 94.688 169.219 94.496 170.203 94.496C170.863 94.496 171.523 94.592 172.183 94.784L170.455 99.212C169.999 99.032 169.543 98.942 169.087 98.942C168.379 98.942 167.731 99.116 167.143 99.464C166.567 99.8 166.105 100.262 165.757 100.85C165.421 101.426 165.253 102.068 165.253 102.776V113H160.861ZM185.491 95H189.883V113H185.491L185.293 110.768C184.801 111.572 184.147 112.226 183.331 112.73C182.527 113.222 181.573 113.468 180.469 113.468C179.137 113.468 177.889 113.216 176.725 112.712C175.561 112.208 174.535 111.512 173.647 110.624C172.771 109.736 172.081 108.71 171.577 107.546C171.085 106.382 170.839 105.134 170.839 103.802C170.839 102.518 171.073 101.312 171.541 100.184C172.021 99.056 172.687 98.066 173.539 97.214C174.391 96.362 175.375 95.696 176.491 95.216C177.607 94.736 178.807 94.496 180.091 94.496C181.279 94.496 182.341 94.76 183.277 95.288C184.225 95.816 185.029 96.488 185.689 97.304L185.491 95ZM180.361 109.238C181.297 109.238 182.125 109.004 182.845 108.536C183.565 108.068 184.129 107.438 184.537 106.646C184.945 105.842 185.149 104.96 185.149 104C185.149 103.028 184.945 102.146 184.537 101.354C184.129 100.55 183.559 99.914 182.827 99.446C182.107 98.978 181.285 98.744 180.361 98.744C179.437 98.744 178.591 98.984 177.823 99.464C177.067 99.932 176.461 100.562 176.005 101.354C175.561 102.146 175.339 103.028 175.339 104C175.339 104.972 175.567 105.854 176.023 106.646C176.479 107.438 177.085 108.068 177.841 108.536C178.609 109.004 179.449 109.238 180.361 109.238ZM192.029 113V95H196.421V96.602C197.033 95.954 197.765 95.444 198.617 95.072C199.469 94.688 200.387 94.496 201.371 94.496C202.619 94.496 203.765 94.79 204.809 95.378C205.865 95.966 206.705 96.752 207.329 97.736C207.965 96.752 208.805 95.966 209.849 95.378C210.893 94.79 212.039 94.496 213.287 94.496C214.607 94.496 215.801 94.82 216.869 95.468C217.949 96.104 218.807 96.962 219.443 98.042C220.091 99.11 220.415 100.304 220.415 101.624V113H216.023V102.794C216.023 102.098 215.849 101.462 215.501 100.886C215.165 100.298 214.709 99.83 214.133 99.482C213.569 99.122 212.933 98.942 212.225 98.942C211.517 98.942 210.875 99.116 210.299 99.464C209.735 99.8 209.279 100.256 208.931 100.832C208.583 101.408 208.409 102.062 208.409 102.794V113H204.017V102.794C204.017 102.062 203.849 101.408 203.513 100.832C203.177 100.256 202.721 99.8 202.145 99.464C201.569 99.116 200.927 98.942 200.219 98.942C199.523 98.942 198.887 99.122 198.311 99.482C197.735 99.83 197.273 100.298 196.925 100.886C196.589 101.462 196.421 102.098 196.421 102.794V113H192.029ZM230.15 113.468C228.494 113.468 226.982 113.042 225.614 112.19C224.258 111.338 223.172 110.198 222.356 108.77C221.552 107.33 221.15 105.74 221.15 104C221.15 102.68 221.384 101.45 221.852 100.31C222.32 99.158 222.962 98.15 223.778 97.286C224.606 96.41 225.566 95.726 226.658 95.234C227.75 94.742 228.914 94.496 230.15 94.496C231.806 94.496 233.312 94.922 234.668 95.774C236.036 96.626 237.122 97.772 237.926 99.212C238.742 100.652 239.15 102.248 239.15 104C239.15 105.308 238.916 106.532 238.448 107.672C237.98 108.812 237.332 109.82 236.504 110.696C235.688 111.56 234.734 112.238 233.642 112.73C232.562 113.222 231.398 113.468 230.15 113.468ZM230.15 109.076C231.026 109.076 231.812 108.842 232.508 108.374C233.204 107.906 233.75 107.288 234.146 106.52C234.554 105.752 234.758 104.912 234.758 104C234.758 103.064 234.548 102.212 234.128 101.444C233.72 100.664 233.162 100.046 232.454 99.59C231.758 99.122 230.99 98.888 230.15 98.888C229.286 98.888 228.506 99.122 227.81 99.59C227.114 100.058 226.562 100.682 226.154 101.462C225.746 102.242 225.542 103.088 225.542 104C225.542 104.948 225.752 105.806 226.172 106.574C226.592 107.342 227.15 107.954 227.846 108.41C228.554 108.854 229.322 109.076 230.15 109.076ZM254.191 86H258.583V113H254.191V110.75C253.615 111.554 252.889 112.208 252.013 112.712C251.137 113.216 250.123 113.468 248.971 113.468C247.663 113.468 246.439 113.222 245.299 112.73C244.159 112.238 243.151 111.56 242.275 110.696C241.411 109.82 240.733 108.812 240.241 107.672C239.749 106.532 239.503 105.308 239.503 104C239.503 102.692 239.749 101.468 240.241 100.328C240.733 99.188 241.411 98.186 242.275 97.322C243.151 96.446 244.159 95.762 245.299 95.27C246.439 94.778 247.663 94.532 248.971 94.532C250.123 94.532 251.137 94.784 252.013 95.288C252.889 95.78 253.615 96.434 254.191 97.25V86ZM249.025 109.238C249.961 109.238 250.789 109.004 251.509 108.536C252.229 108.068 252.793 107.438 253.201 106.646C253.609 105.842 253.813 104.96 253.813 104C253.813 103.028 253.609 102.146 253.201 101.354C252.793 100.55 252.223 99.914 251.491 99.446C250.771 98.978 249.949 98.744 249.025 98.744C248.101 98.744 247.255 98.984 246.487 99.464C245.731 99.932 245.125 100.562 244.669 101.354C244.225 102.146 244.003 103.028 244.003 104C244.003 104.972 244.231 105.854 244.687 106.646C245.143 107.438 245.749 108.068 246.505 108.536C247.273 109.004 248.113 109.238 249.025 109.238ZM269.106 113.468C267.45 113.468 265.938 113.042 264.57 112.19C263.214 111.338 262.128 110.192 261.312 108.752C260.508 107.312 260.106 105.722 260.106 103.982C260.106 102.674 260.34 101.45 260.808 100.31C261.276 99.158 261.918 98.15 262.734 97.286C263.562 96.41 264.522 95.726 265.614 95.234C266.706 94.742 267.87 94.496 269.106 94.496C270.51 94.496 271.794 94.796 272.958 95.396C274.134 95.984 275.13 96.794 275.946 97.826C276.762 98.858 277.356 100.034 277.728 101.354C278.1 102.674 278.184 104.054 277.98 105.494H264.822C264.99 106.166 265.266 106.772 265.65 107.312C266.034 107.84 266.52 108.266 267.108 108.59C267.696 108.902 268.362 109.064 269.106 109.076C269.874 109.088 270.57 108.908 271.194 108.536C271.83 108.152 272.358 107.636 272.778 106.988L277.26 108.032C276.528 109.628 275.436 110.936 273.984 111.956C272.532 112.964 270.906 113.468 269.106 113.468ZM264.678 102.2H273.534C273.402 101.48 273.12 100.832 272.688 100.256C272.268 99.668 271.746 99.2 271.122 98.852C270.498 98.504 269.826 98.33 269.106 98.33C268.386 98.33 267.72 98.504 267.108 98.852C266.496 99.188 265.974 99.65 265.542 100.238C265.122 100.814 264.834 101.468 264.678 102.2ZM279.487 113L279.469 95H283.861L283.879 96.602C284.491 95.954 285.223 95.444 286.075 95.072C286.927 94.688 287.845 94.496 288.829 94.496C289.489 94.496 290.149 94.592 290.809 94.784L289.081 99.212C288.625 99.032 288.169 98.942 287.713 98.942C287.005 98.942 286.357 99.116 285.769 99.464C285.193 99.8 284.731 100.262 284.383 100.85C284.047 101.426 283.879 102.068 283.879 102.776V113H279.487ZM307.946 101.624V113H303.554V102.776C303.554 102.068 303.38 101.426 303.032 100.85C302.684 100.262 302.216 99.8 301.628 99.464C301.052 99.116 300.41 98.942 299.702 98.942C298.994 98.942 298.346 99.116 297.758 99.464C297.182 99.8 296.72 100.262 296.372 100.85C296.036 101.426 295.868 102.068 295.868 102.776V113H291.476L291.458 95H295.85L295.868 96.602C296.48 95.954 297.212 95.444 298.064 95.072C298.916 94.688 299.834 94.496 300.818 94.496C302.126 94.496 303.32 94.82 304.4 95.468C305.48 96.104 306.338 96.962 306.974 98.042C307.622 99.11 307.946 100.304 307.946 101.624Z" fill="#C574F7"/>
</g>
<defs>
<filter id="filter0_d_98_220" x="0.160004" y="0" width="311.786" height="121.468" filterUnits="userSpaceOnUse" color-interpolation-filters="sRGB">
<feFlood flood-opacity="0" result="BackgroundImageFix"/>
<feColorMatrix in="SourceAlpha" type="matrix" values="0 0 0 0 0 0 0 0 0 0 0 0 0 0 0 0 0 0 127 0" result="hardAlpha"/>
<feOffset dy="4"/>
<feGaussianBlur stdDeviation="2"/>
<feComposite in2="hardAlpha" operator="out"/>
<feColorMatrix type="matrix" values="0 0 0 0 0 0 0 0 0 0 0 0 0 0 0 0 0 0 0.25 0"/>
<feBlend mode="normal" in2="BackgroundImageFix" result="effect1_dropShadow_98_220"/>
<feBlend mode="normal" in="SourceGraphic" in2="effect1_dropShadow_98_220" result="shape"/>
</filter>
</defs>
</svg>
