<svg width="189" height="100" viewBox="0 0 189 100" fill="none" xmlns="http://www.w3.org/2000/svg">
<path d="M104.969 54.9495H111.977C111.836 57.2463 111.203 59.2854 110.078 61.0667C108.969 62.8479 107.414 64.2385 105.414 65.2385C103.43 66.2385 101.039 66.7385 98.2422 66.7385C96.0547 66.7385 94.0938 66.3635 92.3594 65.6135C90.625 64.8479 89.1406 63.7542 87.9062 62.3323C86.6875 60.9104 85.7578 59.1917 85.1172 57.176C84.4766 55.1604 84.1562 52.9026 84.1562 50.4026V48.0354C84.1562 45.5354 84.4844 43.2776 85.1406 41.262C85.8125 39.2307 86.7656 37.5042 88 36.0823C89.25 34.6604 90.7422 33.5667 92.4766 32.801C94.2109 32.0354 96.1484 31.6526 98.2891 31.6526C101.133 31.6526 103.531 32.1682 105.484 33.1995C107.453 34.2307 108.977 35.6526 110.055 37.4651C111.148 39.2776 111.805 41.3401 112.023 43.6526H104.992C104.914 42.2776 104.641 41.1135 104.172 40.1604C103.703 39.1917 102.992 38.4651 102.039 37.9807C101.102 37.4807 99.8516 37.2307 98.2891 37.2307C97.1172 37.2307 96.0938 37.4495 95.2188 37.887C94.3438 38.3245 93.6094 38.9885 93.0156 39.8792C92.4219 40.7698 91.9766 41.8948 91.6797 43.2542C91.3984 44.5979 91.2578 46.176 91.2578 47.9885V50.4026C91.2578 52.1682 91.3906 53.7229 91.6562 55.0667C91.9219 56.3948 92.3281 57.5198 92.875 58.4417C93.4375 59.3479 94.1562 60.0354 95.0312 60.5042C95.9219 60.9573 96.9922 61.1838 98.2422 61.1838C99.7109 61.1838 100.922 60.9495 101.875 60.4807C102.828 60.012 103.555 59.3167 104.055 58.3948C104.57 57.4729 104.875 56.3245 104.969 54.9495ZM132.439 57.3401C132.439 56.7307 132.346 56.1838 132.158 55.6995C131.986 55.1995 131.658 54.7463 131.174 54.3401C130.689 53.9182 130.01 53.5042 129.135 53.0979C128.26 52.6917 127.127 52.2698 125.736 51.8323C124.189 51.3323 122.721 50.7698 121.33 50.1448C119.955 49.5198 118.736 48.7932 117.674 47.9651C116.627 47.1213 115.799 46.1448 115.189 45.0354C114.596 43.926 114.299 42.637 114.299 41.1682C114.299 39.7463 114.611 38.4573 115.236 37.301C115.861 36.1292 116.736 35.1292 117.861 34.301C118.986 33.4573 120.314 32.8088 121.846 32.3557C123.392 31.9026 125.088 31.676 126.932 31.676C129.447 31.676 131.642 32.1292 133.517 33.0354C135.392 33.9417 136.846 35.1838 137.877 36.762C138.924 38.3401 139.447 40.1448 139.447 42.176H132.463C132.463 41.176 132.252 40.301 131.83 39.551C131.424 38.7854 130.799 38.1838 129.955 37.7463C129.127 37.3088 128.08 37.0901 126.814 37.0901C125.596 37.0901 124.58 37.2776 123.767 37.6526C122.955 38.012 122.346 38.5042 121.939 39.1292C121.533 39.7385 121.33 40.426 121.33 41.1917C121.33 41.7698 121.471 42.2932 121.752 42.762C122.049 43.2307 122.486 43.6682 123.064 44.0745C123.642 44.4807 124.353 44.8635 125.197 45.2229C126.041 45.5823 127.017 45.9338 128.127 46.2776C129.986 46.8401 131.619 47.4729 133.025 48.176C134.447 48.8792 135.635 49.6682 136.588 50.5432C137.541 51.4182 138.26 52.4104 138.744 53.5198C139.228 54.6292 139.471 55.887 139.471 57.2932C139.471 58.7776 139.182 60.1057 138.603 61.2776C138.025 62.4495 137.189 63.4417 136.096 64.2542C135.002 65.0667 133.697 65.6838 132.182 66.1057C130.666 66.5276 128.971 66.7385 127.096 66.7385C125.408 66.7385 123.744 66.5198 122.103 66.0823C120.463 65.6292 118.971 64.9495 117.627 64.0432C116.299 63.137 115.236 61.9807 114.439 60.5745C113.642 59.1682 113.244 57.5042 113.244 55.5823H120.299C120.299 56.6448 120.463 57.5432 120.791 58.2776C121.119 59.012 121.58 59.6057 122.174 60.0588C122.783 60.512 123.502 60.8401 124.33 61.0432C125.174 61.2463 126.096 61.3479 127.096 61.3479C128.314 61.3479 129.314 61.176 130.096 60.8323C130.892 60.4885 131.478 60.012 131.853 59.4026C132.244 58.7932 132.439 58.1057 132.439 57.3401ZM145.543 32.1448H151.496L160.262 57.1995L169.027 32.1448H174.98L162.652 66.2698H157.871L145.543 32.1448ZM142.332 32.1448H148.262L149.34 56.5667V66.2698H142.332V32.1448ZM172.262 32.1448H178.215V66.2698H171.183V56.5667L172.262 32.1448Z" fill="white"/>
<path d="M118.552 22.9893H119.864C119.796 23.6182 119.616 24.181 119.324 24.6777C119.033 25.1745 118.62 25.5687 118.087 25.8604C117.554 26.1475 116.888 26.291 116.091 26.291C115.507 26.291 114.977 26.1816 114.498 25.9629C114.024 25.7441 113.616 25.4342 113.274 25.0332C112.933 24.6276 112.668 24.1423 112.481 23.5771C112.299 23.0075 112.208 22.374 112.208 21.6768V20.6855C112.208 19.9883 112.299 19.3571 112.481 18.792C112.668 18.2223 112.935 17.7347 113.281 17.3291C113.632 16.9235 114.054 16.6113 114.546 16.3926C115.038 16.1738 115.592 16.0645 116.207 16.0645C116.959 16.0645 117.595 16.2057 118.114 16.4883C118.634 16.7708 119.037 17.1628 119.324 17.6641C119.616 18.1608 119.796 18.7373 119.864 19.3936H118.552C118.488 18.9287 118.369 18.5299 118.196 18.1973C118.023 17.86 117.777 17.6003 117.458 17.418C117.139 17.2357 116.722 17.1445 116.207 17.1445C115.765 17.1445 115.375 17.2288 115.038 17.3975C114.705 17.5661 114.425 17.8053 114.197 18.1152C113.974 18.4251 113.805 18.7965 113.691 19.2295C113.577 19.6624 113.521 20.1432 113.521 20.6719V21.6768C113.521 22.1644 113.571 22.6224 113.671 23.0508C113.776 23.4792 113.933 23.8551 114.143 24.1787C114.352 24.5023 114.619 24.7575 114.942 24.9443C115.266 25.1266 115.649 25.2178 116.091 25.2178C116.651 25.2178 117.098 25.1289 117.431 24.9512C117.763 24.7734 118.014 24.5182 118.183 24.1855C118.356 23.8529 118.479 23.4541 118.552 22.9893ZM120.576 22.5381V22.3809C120.576 21.8477 120.653 21.3532 120.808 20.8975C120.963 20.4372 121.186 20.0384 121.478 19.7012C121.77 19.3594 122.123 19.0951 122.538 18.9082C122.952 18.7168 123.417 18.6211 123.932 18.6211C124.452 18.6211 124.919 18.7168 125.334 18.9082C125.753 19.0951 126.108 19.3594 126.4 19.7012C126.696 20.0384 126.922 20.4372 127.077 20.8975C127.232 21.3532 127.309 21.8477 127.309 22.3809V22.5381C127.309 23.0713 127.232 23.5658 127.077 24.0215C126.922 24.4772 126.696 24.876 126.4 25.2178C126.108 25.555 125.755 25.8193 125.34 26.0107C124.93 26.1976 124.465 26.291 123.946 26.291C123.426 26.291 122.959 26.1976 122.544 26.0107C122.13 25.8193 121.774 25.555 121.478 25.2178C121.186 24.876 120.963 24.4772 120.808 24.0215C120.653 23.5658 120.576 23.0713 120.576 22.5381ZM121.84 22.3809V22.5381C121.84 22.9072 121.884 23.2559 121.97 23.584C122.057 23.9076 122.187 24.1947 122.36 24.4453C122.538 24.696 122.759 24.8942 123.023 25.04C123.287 25.1813 123.595 25.252 123.946 25.252C124.292 25.252 124.595 25.1813 124.855 25.04C125.119 24.8942 125.338 24.696 125.511 24.4453C125.684 24.1947 125.814 23.9076 125.901 23.584C125.992 23.2559 126.038 22.9072 126.038 22.5381V22.3809C126.038 22.0163 125.992 21.6722 125.901 21.3486C125.814 21.0205 125.682 20.7311 125.504 20.4805C125.331 20.2253 125.113 20.0247 124.848 19.8789C124.588 19.7331 124.283 19.6602 123.932 19.6602C123.586 19.6602 123.28 19.7331 123.016 19.8789C122.756 20.0247 122.538 20.2253 122.36 20.4805C122.187 20.7311 122.057 21.0205 121.97 21.3486C121.884 21.6722 121.84 22.0163 121.84 22.3809ZM129.593 20.2275V26.1543H128.321V18.7578H129.525L129.593 20.2275ZM129.333 22.1758L128.745 22.1553C128.75 21.6494 128.816 21.1823 128.943 20.7539C129.071 20.321 129.26 19.945 129.511 19.626C129.762 19.307 130.074 19.0609 130.447 18.8877C130.821 18.71 131.254 18.6211 131.746 18.6211C132.093 18.6211 132.412 18.6712 132.703 18.7715C132.995 18.8672 133.248 19.0199 133.462 19.2295C133.676 19.4391 133.843 19.708 133.961 20.0361C134.08 20.3643 134.139 20.7607 134.139 21.2256V26.1543H132.874V21.2871C132.874 20.8997 132.808 20.5898 132.676 20.3574C132.548 20.125 132.366 19.9564 132.129 19.8516C131.892 19.7422 131.614 19.6875 131.295 19.6875C130.921 19.6875 130.609 19.7536 130.359 19.8857C130.108 20.0179 129.907 20.2002 129.757 20.4326C129.607 20.665 129.497 20.9316 129.429 21.2324C129.365 21.5286 129.333 21.8431 129.333 22.1758ZM134.125 21.4785L133.277 21.7383C133.282 21.3327 133.348 20.943 133.476 20.5693C133.608 20.1956 133.797 19.863 134.043 19.5713C134.294 19.2796 134.601 19.0495 134.966 18.8809C135.331 18.7077 135.748 18.6211 136.217 18.6211C136.613 18.6211 136.964 18.6735 137.27 18.7783C137.58 18.8831 137.839 19.0449 138.049 19.2637C138.263 19.4779 138.425 19.7536 138.534 20.0908C138.644 20.4281 138.698 20.8291 138.698 21.2939V26.1543H137.427V21.2803C137.427 20.8656 137.361 20.5443 137.229 20.3164C137.101 20.084 136.919 19.9222 136.682 19.8311C136.449 19.7354 136.171 19.6875 135.848 19.6875C135.57 19.6875 135.324 19.7354 135.109 19.8311C134.895 19.9268 134.715 20.0589 134.569 20.2275C134.424 20.3916 134.312 20.5807 134.234 20.7949C134.162 21.0091 134.125 21.237 134.125 21.4785ZM141.31 20.2275V26.1543H140.039V18.7578H141.242L141.31 20.2275ZM141.05 22.1758L140.463 22.1553C140.467 21.6494 140.533 21.1823 140.661 20.7539C140.788 20.321 140.978 19.945 141.228 19.626C141.479 19.307 141.791 19.0609 142.165 18.8877C142.538 18.71 142.971 18.6211 143.464 18.6211C143.81 18.6211 144.129 18.6712 144.421 18.7715C144.712 18.8672 144.965 19.0199 145.179 19.2295C145.394 19.4391 145.56 19.708 145.678 20.0361C145.797 20.3643 145.856 20.7607 145.856 21.2256V26.1543H144.591V21.2871C144.591 20.8997 144.525 20.5898 144.393 20.3574C144.266 20.125 144.083 19.9564 143.846 19.8516C143.609 19.7422 143.331 19.6875 143.012 19.6875C142.639 19.6875 142.327 19.7536 142.076 19.8857C141.825 20.0179 141.625 20.2002 141.474 20.4326C141.324 20.665 141.215 20.9316 141.146 21.2324C141.082 21.5286 141.05 21.8431 141.05 22.1758ZM145.842 21.4785L144.995 21.7383C144.999 21.3327 145.065 20.943 145.193 20.5693C145.325 20.1956 145.514 19.863 145.76 19.5713C146.011 19.2796 146.319 19.0495 146.683 18.8809C147.048 18.7077 147.465 18.6211 147.934 18.6211C148.331 18.6211 148.682 18.6735 148.987 18.7783C149.297 18.8831 149.557 19.0449 149.766 19.2637C149.98 19.4779 150.142 19.7536 150.252 20.0908C150.361 20.4281 150.416 20.8291 150.416 21.2939V26.1543H149.144V21.2803C149.144 20.8656 149.078 20.5443 148.946 20.3164C148.818 20.084 148.636 19.9222 148.399 19.8311C148.167 19.7354 147.889 19.6875 147.565 19.6875C147.287 19.6875 147.041 19.7354 146.827 19.8311C146.613 19.9268 146.433 20.0589 146.287 20.2275C146.141 20.3916 146.029 20.5807 145.952 20.7949C145.879 21.0091 145.842 21.237 145.842 21.4785ZM156.295 24.4453V18.7578H157.567V26.1543H156.357L156.295 24.4453ZM156.534 22.8867L157.061 22.873C157.061 23.3652 157.008 23.821 156.904 24.2402C156.803 24.6549 156.639 25.015 156.411 25.3203C156.184 25.6257 155.885 25.8649 155.516 26.0381C155.147 26.2067 154.698 26.291 154.169 26.291C153.809 26.291 153.479 26.2386 153.178 26.1338C152.882 26.029 152.627 25.8672 152.412 25.6484C152.198 25.4297 152.032 25.1449 151.913 24.7939C151.799 24.443 151.742 24.0215 151.742 23.5293V18.7578H153.007V23.543C153.007 23.8757 153.044 24.1514 153.116 24.3701C153.194 24.5843 153.296 24.7552 153.424 24.8828C153.556 25.0059 153.702 25.0924 153.862 25.1426C154.026 25.1927 154.194 25.2178 154.367 25.2178C154.905 25.2178 155.331 25.1152 155.646 24.9102C155.96 24.7005 156.186 24.4202 156.322 24.0693C156.464 23.7139 156.534 23.3197 156.534 22.8867ZM160.199 20.3369V26.1543H158.934V18.7578H160.131L160.199 20.3369ZM159.898 22.1758L159.372 22.1553C159.376 21.6494 159.452 21.1823 159.597 20.7539C159.743 20.321 159.948 19.945 160.213 19.626C160.477 19.307 160.791 19.0609 161.156 18.8877C161.525 18.71 161.933 18.6211 162.38 18.6211C162.744 18.6211 163.072 18.6712 163.364 18.7715C163.656 18.8672 163.904 19.0221 164.109 19.2363C164.319 19.4505 164.478 19.7285 164.588 20.0703C164.697 20.4076 164.752 20.82 164.752 21.3076V26.1543H163.48V21.2939C163.48 20.9066 163.423 20.5967 163.309 20.3643C163.195 20.1273 163.029 19.9564 162.81 19.8516C162.592 19.7422 162.323 19.6875 162.004 19.6875C161.689 19.6875 161.402 19.7536 161.142 19.8857C160.887 20.0179 160.666 20.2002 160.479 20.4326C160.297 20.665 160.153 20.9316 160.049 21.2324C159.948 21.5286 159.898 21.8431 159.898 22.1758ZM167.487 18.7578V26.1543H166.215V18.7578H167.487ZM166.119 16.7959C166.119 16.5908 166.181 16.4176 166.304 16.2764C166.432 16.1351 166.619 16.0645 166.865 16.0645C167.106 16.0645 167.291 16.1351 167.418 16.2764C167.55 16.4176 167.617 16.5908 167.617 16.7959C167.617 16.9919 167.55 17.1605 167.418 17.3018C167.291 17.4385 167.106 17.5068 166.865 17.5068C166.619 17.5068 166.432 17.4385 166.304 17.3018C166.181 17.1605 166.119 16.9919 166.119 16.7959ZM172.054 18.7578V19.7285H168.055V18.7578H172.054ZM169.408 16.96H170.673V24.3223C170.673 24.5729 170.712 24.762 170.789 24.8896C170.866 25.0173 170.967 25.1016 171.09 25.1426C171.213 25.1836 171.345 25.2041 171.486 25.2041C171.591 25.2041 171.7 25.195 171.814 25.1768C171.933 25.154 172.022 25.1357 172.081 25.1221L172.088 26.1543C171.988 26.1862 171.855 26.2158 171.691 26.2432C171.532 26.2751 171.338 26.291 171.11 26.291C170.8 26.291 170.516 26.2295 170.256 26.1064C169.996 25.9834 169.789 25.7783 169.634 25.4912C169.483 25.1995 169.408 24.8076 169.408 24.3154V16.96ZM175.055 25.3887L177.113 18.7578H178.466L175.499 27.2959C175.431 27.4782 175.34 27.6742 175.226 27.8838C175.117 28.098 174.975 28.3008 174.802 28.4922C174.629 28.6836 174.419 28.8385 174.173 28.957C173.932 29.0801 173.642 29.1416 173.305 29.1416C173.205 29.1416 173.077 29.1279 172.922 29.1006C172.767 29.0732 172.658 29.0505 172.594 29.0322L172.587 28.0068C172.624 28.0114 172.681 28.016 172.758 28.0205C172.84 28.0296 172.897 28.0342 172.929 28.0342C173.216 28.0342 173.46 27.9954 173.661 27.918C173.861 27.8451 174.03 27.7197 174.166 27.542C174.308 27.3688 174.429 27.1296 174.529 26.8242L175.055 25.3887ZM173.544 18.7578L175.465 24.5L175.793 25.833L174.884 26.2979L172.164 18.7578H173.544Z" fill="white"/>
<path d="M85.9043 76.8518C85.9043 76.6194 85.8678 76.4143 85.7949 76.2366C85.7266 76.0543 85.6035 75.8902 85.4258 75.7444C85.2526 75.5986 85.0111 75.4596 84.7012 75.3274C84.3958 75.1952 84.0085 75.0608 83.5391 74.9241C83.0469 74.7782 82.6025 74.6165 82.2061 74.4387C81.8096 74.2564 81.4701 74.0491 81.1875 73.8167C80.9049 73.5842 80.6885 73.3176 80.5381 73.0168C80.3877 72.7161 80.3125 72.372 80.3125 71.9846C80.3125 71.5972 80.3923 71.2395 80.5518 70.9114C80.7113 70.5833 80.9391 70.2984 81.2354 70.0569C81.5361 69.8108 81.8939 69.6194 82.3086 69.4827C82.7233 69.3459 83.1859 69.2776 83.6963 69.2776C84.4437 69.2776 85.0771 69.4211 85.5967 69.7083C86.1208 69.9908 86.5195 70.3622 86.793 70.8225C87.0664 71.2782 87.2031 71.7659 87.2031 72.2854H85.8906C85.8906 71.9117 85.8109 71.5813 85.6514 71.2942C85.4919 71.0025 85.2503 70.7747 84.9268 70.6106C84.6032 70.442 84.193 70.3577 83.6963 70.3577C83.2269 70.3577 82.8395 70.4283 82.5342 70.5696C82.2288 70.7109 82.001 70.9023 81.8506 71.1438C81.7048 71.3853 81.6318 71.6611 81.6318 71.9709C81.6318 72.1806 81.6751 72.372 81.7617 72.5452C81.8529 72.7138 81.9919 72.871 82.1787 73.0168C82.3701 73.1627 82.6117 73.2971 82.9033 73.4202C83.1995 73.5432 83.5527 73.6617 83.9629 73.7756C84.528 73.9351 85.0156 74.1129 85.4258 74.3088C85.8359 74.5048 86.1732 74.7258 86.4375 74.9719C86.7064 75.2135 86.9046 75.4892 87.0322 75.7991C87.1644 76.1044 87.2305 76.4508 87.2305 76.8381C87.2305 77.2437 87.1484 77.6106 86.9844 77.9387C86.8203 78.2668 86.5856 78.5471 86.2803 78.7795C85.9749 79.012 85.6081 79.192 85.1797 79.3196C84.7559 79.4426 84.2819 79.5042 83.7578 79.5042C83.2975 79.5042 82.8441 79.4403 82.3975 79.3127C81.9554 79.1851 81.5521 78.9937 81.1875 78.7385C80.8275 78.4833 80.5381 78.1689 80.3193 77.7952C80.1051 77.4169 79.998 76.9794 79.998 76.4827H81.3105C81.3105 76.8245 81.3766 77.1184 81.5088 77.3645C81.641 77.606 81.821 77.8066 82.0488 77.9661C82.2812 78.1256 82.5433 78.2441 82.835 78.3215C83.1312 78.3944 83.4388 78.4309 83.7578 78.4309C84.2181 78.4309 84.6077 78.3671 84.9268 78.2395C85.2458 78.1119 85.4873 77.9296 85.6514 77.6926C85.82 77.4556 85.9043 77.1754 85.9043 76.8518ZM91.1207 78.4651C91.4214 78.4651 91.6994 78.4036 91.9546 78.2805C92.2099 78.1575 92.4195 77.9889 92.5836 77.7747C92.7476 77.5559 92.841 77.3075 92.8638 77.0295H94.067C94.0442 77.467 93.8961 77.8749 93.6226 78.2532C93.3537 78.6269 93.0005 78.9299 92.563 79.1624C92.1255 79.3902 91.6448 79.5042 91.1207 79.5042C90.5647 79.5042 90.0793 79.4062 89.6646 79.2102C89.2545 79.0142 88.9127 78.7454 88.6392 78.4036C88.3703 78.0618 88.1675 77.6698 88.0308 77.2278C87.8987 76.7812 87.8326 76.3095 87.8326 75.8127V75.5256C87.8326 75.0289 87.8987 74.5595 88.0308 74.1174C88.1675 73.6708 88.3703 73.2766 88.6392 72.9348C88.9127 72.593 89.2545 72.3241 89.6646 72.1282C90.0793 71.9322 90.5647 71.8342 91.1207 71.8342C91.6994 71.8342 92.2053 71.9527 92.6382 72.1897C93.0712 72.4221 93.4107 72.7411 93.6568 73.1467C93.9074 73.5478 94.0442 74.0035 94.067 74.5139H92.8638C92.841 74.2086 92.7545 73.9329 92.6041 73.6868C92.4582 73.4407 92.2577 73.2447 92.0025 73.0989C91.7518 72.9485 91.4579 72.8733 91.1207 72.8733C90.7333 72.8733 90.4074 72.9508 90.1431 73.1057C89.8834 73.2561 89.676 73.4612 89.5211 73.7209C89.3707 73.9762 89.2613 74.261 89.1929 74.5754C89.1291 74.8853 89.0972 75.2021 89.0972 75.5256V75.8127C89.0972 76.1363 89.1291 76.4553 89.1929 76.7698C89.2567 77.0842 89.3638 77.3691 89.5142 77.6243C89.6692 77.8795 89.8765 78.0846 90.1363 78.2395C90.4006 78.3899 90.7287 78.4651 91.1207 78.4651ZM96.3029 71.9709V79.3674H95.0314V71.9709H96.3029ZM94.9357 70.009C94.9357 69.804 94.9972 69.6308 95.1202 69.4895C95.2478 69.3482 95.4347 69.2776 95.6808 69.2776C95.9223 69.2776 96.1069 69.3482 96.2345 69.4895C96.3667 69.6308 96.4327 69.804 96.4327 70.009C96.4327 70.205 96.3667 70.3736 96.2345 70.5149C96.1069 70.6516 95.9223 70.72 95.6808 70.72C95.4347 70.72 95.2478 70.6516 95.1202 70.5149C94.9972 70.3736 94.9357 70.205 94.9357 70.009ZM100.842 79.5042C100.327 79.5042 99.8604 79.4176 99.4411 79.2444C99.0264 79.0667 98.6686 78.8183 98.3679 78.4993C98.0716 78.1803 97.8438 77.802 97.6843 77.3645C97.5248 76.927 97.445 76.4485 97.445 75.929V75.6418C97.445 75.0403 97.5339 74.5048 97.7116 74.0354C97.8893 73.5614 98.1309 73.1604 98.4362 72.8323C98.7415 72.5042 99.0879 72.2558 99.4753 72.0872C99.8626 71.9185 100.264 71.8342 100.678 71.8342C101.207 71.8342 101.663 71.9254 102.046 72.1077C102.433 72.29 102.75 72.5452 102.996 72.8733C103.242 73.1969 103.424 73.5797 103.543 74.0217C103.661 74.4592 103.72 74.9377 103.72 75.4573V76.0247H98.197V74.9924H102.456V74.8967C102.438 74.5686 102.369 74.2496 102.251 73.9397C102.137 73.6298 101.954 73.3746 101.704 73.1741C101.453 72.9736 101.111 72.8733 100.678 72.8733C100.391 72.8733 100.127 72.9348 99.8854 73.0579C99.6439 73.1764 99.4365 73.3541 99.2634 73.5911C99.0902 73.828 98.9557 74.1174 98.86 74.4592C98.7643 74.801 98.7165 75.1952 98.7165 75.6418V75.929C98.7165 76.2799 98.7643 76.6103 98.86 76.9202C98.9603 77.2255 99.1039 77.4944 99.2907 77.7268C99.4821 77.9592 99.7123 78.1415 99.9811 78.2737C100.255 78.4058 100.564 78.4719 100.911 78.4719C101.357 78.4719 101.736 78.3808 102.046 78.1985C102.355 78.0162 102.627 77.7724 102.859 77.467L103.625 78.0754C103.465 78.317 103.262 78.5471 103.016 78.7659C102.77 78.9846 102.467 79.1624 102.107 79.2991C101.752 79.4358 101.33 79.5042 100.842 79.5042ZM105.902 73.55V79.3674H104.637V71.9709H105.833L105.902 73.55ZM105.601 75.3889L105.074 75.3684C105.079 74.8625 105.154 74.3954 105.3 73.967C105.446 73.5341 105.651 73.1581 105.915 72.8391C106.18 72.5201 106.494 72.274 106.859 72.1008C107.228 71.9231 107.636 71.8342 108.082 71.8342C108.447 71.8342 108.775 71.8844 109.067 71.9846C109.358 72.0803 109.607 72.2353 109.812 72.4495C110.021 72.6637 110.181 72.9417 110.29 73.2834C110.4 73.6207 110.454 74.0331 110.454 74.5208V79.3674H109.183V74.5071C109.183 74.1197 109.126 73.8098 109.012 73.5774C108.898 73.3404 108.732 73.1695 108.513 73.0647C108.294 72.9553 108.025 72.9006 107.706 72.9006C107.392 72.9006 107.105 72.9667 106.845 73.0989C106.59 73.231 106.369 73.4133 106.182 73.6458C106 73.8782 105.856 74.1448 105.751 74.4456C105.651 74.7418 105.601 75.0562 105.601 75.3889ZM114.775 78.4651C115.076 78.4651 115.354 78.4036 115.609 78.2805C115.864 78.1575 116.074 77.9889 116.238 77.7747C116.402 77.5559 116.496 77.3075 116.518 77.0295H117.721C117.699 77.467 117.551 77.8749 117.277 78.2532C117.008 78.6269 116.655 78.9299 116.218 79.1624C115.78 79.3902 115.299 79.5042 114.775 79.5042C114.219 79.5042 113.734 79.4062 113.319 79.2102C112.909 79.0142 112.567 78.7454 112.294 78.4036C112.025 78.0618 111.822 77.6698 111.685 77.2278C111.553 76.7812 111.487 76.3095 111.487 75.8127V75.5256C111.487 75.0289 111.553 74.5595 111.685 74.1174C111.822 73.6708 112.025 73.2766 112.294 72.9348C112.567 72.593 112.909 72.3241 113.319 72.1282C113.734 71.9322 114.219 71.8342 114.775 71.8342C115.354 71.8342 115.86 71.9527 116.293 72.1897C116.726 72.4221 117.065 72.7411 117.311 73.1467C117.562 73.5478 117.699 74.0035 117.721 74.5139H116.518C116.496 74.2086 116.409 73.9329 116.259 73.6868C116.113 73.4407 115.912 73.2447 115.657 73.0989C115.406 72.9485 115.112 72.8733 114.775 72.8733C114.388 72.8733 114.062 72.9508 113.798 73.1057C113.538 73.2561 113.331 73.4612 113.176 73.7209C113.025 73.9762 112.916 74.261 112.847 74.5754C112.784 74.8853 112.752 75.2021 112.752 75.5256V75.8127C112.752 76.1363 112.784 76.4553 112.847 76.7698C112.911 77.0842 113.018 77.3691 113.169 77.6243C113.324 77.8795 113.531 78.0846 113.791 78.2395C114.055 78.3899 114.383 78.4651 114.775 78.4651ZM121.653 79.5042C121.138 79.5042 120.671 79.4176 120.251 79.2444C119.837 79.0667 119.479 78.8183 119.178 78.4993C118.882 78.1803 118.654 77.802 118.494 77.3645C118.335 76.927 118.255 76.4485 118.255 75.929V75.6418C118.255 75.0403 118.344 74.5048 118.522 74.0354C118.7 73.5614 118.941 73.1604 119.246 72.8323C119.552 72.5042 119.898 72.2558 120.286 72.0872C120.673 71.9185 121.074 71.8342 121.489 71.8342C122.017 71.8342 122.473 71.9254 122.856 72.1077C123.243 72.29 123.56 72.5452 123.806 72.8733C124.052 73.1969 124.234 73.5797 124.353 74.0217C124.471 74.4592 124.531 74.9377 124.531 75.4573V76.0247H119.007V74.9924H123.266V74.8967C123.248 74.5686 123.179 74.2496 123.061 73.9397C122.947 73.6298 122.765 73.3746 122.514 73.1741C122.263 72.9736 121.922 72.8733 121.489 72.8733C121.202 72.8733 120.937 72.9348 120.696 73.0579C120.454 73.1764 120.247 73.3541 120.074 73.5911C119.9 73.828 119.766 74.1174 119.67 74.4592C119.575 74.801 119.527 75.1952 119.527 75.6418V75.929C119.527 76.2799 119.575 76.6103 119.67 76.9202C119.771 77.2255 119.914 77.4944 120.101 77.7268C120.292 77.9592 120.522 78.1415 120.791 78.2737C121.065 78.4058 121.375 78.4719 121.721 78.4719C122.168 78.4719 122.546 78.3808 122.856 78.1985C123.166 78.0162 123.437 77.7724 123.669 77.467L124.435 78.0754C124.275 78.317 124.073 78.5471 123.827 78.7659C123.58 78.9846 123.277 79.1624 122.917 79.2991C122.562 79.4358 122.14 79.5042 121.653 79.5042ZM128.968 69.4143H130.247L133.507 77.5286L136.761 69.4143H138.046L133.999 79.3674H133.001L128.968 69.4143ZM128.551 69.4143H129.679L129.864 75.4846V79.3674H128.551V69.4143ZM137.329 69.4143H138.457V79.3674H137.144V75.4846L137.329 69.4143ZM144.548 77.6584V71.9709H145.819V79.3674H144.609L144.548 77.6584ZM144.787 76.0999L145.314 76.0862C145.314 76.5784 145.261 77.0341 145.156 77.4534C145.056 77.8681 144.892 78.2281 144.664 78.5334C144.436 78.8388 144.138 79.078 143.769 79.2512C143.399 79.4198 142.951 79.5042 142.422 79.5042C142.062 79.5042 141.731 79.4517 141.431 79.3469C141.134 79.2421 140.879 79.0803 140.665 78.8616C140.451 78.6428 140.285 78.358 140.166 78.0071C140.052 77.6562 139.995 77.2346 139.995 76.7424V71.9709H141.26V76.7561C141.26 77.0888 141.296 77.3645 141.369 77.5833C141.447 77.7974 141.549 77.9683 141.677 78.0959C141.809 78.219 141.955 78.3056 142.114 78.3557C142.278 78.4058 142.447 78.4309 142.62 78.4309C143.158 78.4309 143.584 78.3284 143.898 78.1233C144.213 77.9137 144.439 77.6334 144.575 77.2825C144.717 76.927 144.787 76.5328 144.787 76.0999ZM151.494 77.4055C151.494 77.2232 151.453 77.0546 151.371 76.8997C151.293 76.7402 151.131 76.5966 150.885 76.469C150.644 76.3368 150.279 76.2229 149.792 76.1272C149.381 76.0406 149.01 75.9381 148.677 75.8196C148.349 75.7011 148.069 75.5575 147.837 75.3889C147.609 75.2203 147.433 75.0221 147.31 74.7942C147.187 74.5663 147.126 74.2997 147.126 73.9944C147.126 73.7027 147.189 73.427 147.317 73.1672C147.449 72.9075 147.634 72.6773 147.871 72.4768C148.112 72.2763 148.402 72.1191 148.739 72.0051C149.076 71.8912 149.452 71.8342 149.867 71.8342C150.459 71.8342 150.965 71.939 151.384 72.1487C151.804 72.3583 152.125 72.6386 152.348 72.9895C152.572 73.3359 152.683 73.7209 152.683 74.1448H151.419C151.419 73.9397 151.357 73.7415 151.234 73.55C151.115 73.3541 150.94 73.1923 150.708 73.0647C150.48 72.9371 150.199 72.8733 149.867 72.8733C149.516 72.8733 149.231 72.928 149.012 73.0374C148.798 73.1422 148.641 73.2766 148.541 73.4407C148.445 73.6047 148.397 73.7779 148.397 73.9602C148.397 74.0969 148.42 74.22 148.465 74.3293C148.516 74.4342 148.602 74.5321 148.725 74.6233C148.848 74.7099 149.021 74.7919 149.245 74.8694C149.468 74.9469 149.753 75.0243 150.099 75.1018C150.705 75.2385 151.204 75.4026 151.596 75.594C151.988 75.7854 152.28 76.0201 152.471 76.2981C152.663 76.5761 152.758 76.9133 152.758 77.3098C152.758 77.6334 152.69 77.9296 152.553 78.1985C152.421 78.4674 152.227 78.6998 151.972 78.8958C151.722 79.0872 151.421 79.2375 151.07 79.3469C150.724 79.4517 150.334 79.5042 149.901 79.5042C149.249 79.5042 148.698 79.3879 148.247 79.1555C147.796 78.9231 147.454 78.6223 147.221 78.2532C146.989 77.884 146.873 77.4944 146.873 77.0842H148.144C148.162 77.4306 148.263 77.7063 148.445 77.9114C148.627 78.1119 148.851 78.2555 149.115 78.342C149.379 78.4241 149.641 78.4651 149.901 78.4651C150.247 78.4651 150.537 78.4195 150.769 78.3284C151.006 78.2372 151.186 78.1119 151.309 77.9524C151.432 77.7929 151.494 77.6106 151.494 77.4055ZM156.929 79.5042C156.414 79.5042 155.947 79.4176 155.527 79.2444C155.113 79.0667 154.755 78.8183 154.454 78.4993C154.158 78.1803 153.93 77.802 153.771 77.3645C153.611 76.927 153.531 76.4485 153.531 75.929V75.6418C153.531 75.0403 153.62 74.5048 153.798 74.0354C153.976 73.5614 154.217 73.1604 154.523 72.8323C154.828 72.5042 155.174 72.2558 155.562 72.0872C155.949 71.9185 156.35 71.8342 156.765 71.8342C157.293 71.8342 157.749 71.9254 158.132 72.1077C158.519 72.29 158.836 72.5452 159.082 72.8733C159.328 73.1969 159.511 73.5797 159.629 74.0217C159.748 74.4592 159.807 74.9377 159.807 75.4573V76.0247H154.283V74.9924H158.542V74.8967C158.524 74.5686 158.456 74.2496 158.337 73.9397C158.223 73.6298 158.041 73.3746 157.79 73.1741C157.54 72.9736 157.198 72.8733 156.765 72.8733C156.478 72.8733 156.213 72.9348 155.972 73.0579C155.73 73.1764 155.523 73.3541 155.35 73.5911C155.177 73.828 155.042 74.1174 154.946 74.4592C154.851 74.801 154.803 75.1952 154.803 75.6418V75.929C154.803 76.2799 154.851 76.6103 154.946 76.9202C155.047 77.2255 155.19 77.4944 155.377 77.7268C155.569 77.9592 155.799 78.1415 156.068 78.2737C156.341 78.4058 156.651 78.4719 156.997 78.4719C157.444 78.4719 157.822 78.3808 158.132 78.1985C158.442 78.0162 158.713 77.7724 158.945 77.467L159.711 78.0754C159.552 78.317 159.349 78.5471 159.103 78.7659C158.857 78.9846 158.554 79.1624 158.194 79.2991C157.838 79.4358 157.416 79.5042 156.929 79.5042ZM165.249 77.6584V71.9709H166.52V79.3674H165.31L165.249 77.6584ZM165.488 76.0999L166.014 76.0862C166.014 76.5784 165.962 77.0341 165.857 77.4534C165.757 77.8681 165.593 78.2281 165.365 78.5334C165.137 78.8388 164.839 79.078 164.469 79.2512C164.1 79.4198 163.651 79.5042 163.123 79.5042C162.763 79.5042 162.432 79.4517 162.132 79.3469C161.835 79.2421 161.58 79.0803 161.366 78.8616C161.152 78.6428 160.985 78.358 160.867 78.0071C160.753 77.6562 160.696 77.2346 160.696 76.7424V71.9709H161.961V76.7561C161.961 77.0888 161.997 77.3645 162.07 77.5833C162.148 77.7974 162.25 77.9683 162.378 78.0959C162.51 78.219 162.656 78.3056 162.815 78.3557C162.979 78.4058 163.148 78.4309 163.321 78.4309C163.859 78.4309 164.285 78.3284 164.599 78.1233C164.914 77.9137 165.139 77.6334 165.276 77.2825C165.417 76.927 165.488 76.5328 165.488 76.0999ZM169.146 73.4407V79.3674H167.874V71.9709H169.077L169.146 73.4407ZM168.886 75.3889L168.298 75.3684C168.303 74.8625 168.369 74.3954 168.496 73.967C168.624 73.5341 168.813 73.1581 169.064 72.8391C169.314 72.5201 169.627 72.274 170 72.1008C170.374 71.9231 170.807 71.8342 171.299 71.8342C171.645 71.8342 171.964 71.8844 172.256 71.9846C172.548 72.0803 172.801 72.233 173.015 72.4426C173.229 72.6523 173.395 72.9211 173.514 73.2493C173.632 73.5774 173.692 73.9739 173.692 74.4387V79.3674H172.427V74.5002C172.427 74.1129 172.361 73.803 172.229 73.5706C172.101 73.3381 171.919 73.1695 171.682 73.0647C171.445 72.9553 171.167 72.9006 170.848 72.9006C170.474 72.9006 170.162 72.9667 169.911 73.0989C169.661 73.231 169.46 73.4133 169.31 73.6458C169.159 73.8782 169.05 74.1448 168.982 74.4456C168.918 74.7418 168.886 75.0562 168.886 75.3889ZM173.678 74.6917L172.83 74.9514C172.835 74.5458 172.901 74.1562 173.029 73.7825C173.161 73.4088 173.35 73.0761 173.596 72.7844C173.847 72.4928 174.154 72.2626 174.519 72.094C174.883 71.9208 175.3 71.8342 175.77 71.8342C176.166 71.8342 176.517 71.8866 176.823 71.9915C177.132 72.0963 177.392 72.2581 177.602 72.4768C177.816 72.691 177.978 72.9667 178.087 73.304C178.197 73.6412 178.251 74.0422 178.251 74.5071V79.3674H176.98V74.4934C176.98 74.0787 176.914 73.7574 176.782 73.5295C176.654 73.2971 176.472 73.1353 176.235 73.0442C176.002 72.9485 175.724 72.9006 175.401 72.9006C175.123 72.9006 174.877 72.9485 174.662 73.0442C174.448 73.1399 174.268 73.2721 174.122 73.4407C173.977 73.6047 173.865 73.7939 173.787 74.0081C173.714 74.2222 173.678 74.4501 173.678 74.6917Z" fill="white"/>
<g clip-path="url(#clip0_265_2808)">
<circle cx="53.2745" cy="51.5194" r="22.7891" fill="#4F09C0"/>
<path d="M46.914 56.9409L37.2494 51.1696L73.2521 21.6171L60.4108 43.1212L70.0754 48.8925L34.0727 78.445L46.914 56.9409Z" fill="#FFD600"/>
<g clip-path="url(#clip1_265_2808)">
<path d="M17.7361 53.0594L18.898 55.9605L21.8449 57.001L18.9437 58.163L17.9032 61.1098L16.7413 58.2087L13.7944 57.1682L16.6955 56.0062L17.7361 53.0594ZM17.6462 48.7304L15.4939 54.8535L9.46542 57.258L15.5885 59.4103L17.9931 65.4388L20.1454 59.3157L26.1739 56.9112L20.0508 54.7589L17.6462 48.7304Z" fill="white"/>
</g>
</g>
<g clip-path="url(#clip2_265_2808)">
<path d="M24.933 68.6897L26.8099 70.4951L29.405 70.2755L27.5995 72.1524L27.8191 74.7474L25.9422 72.942L23.3472 73.1616L25.1526 71.2847L24.933 68.6897ZM23.3811 65.4322L23.8448 70.8209L20.0897 74.7136L25.4785 74.2499L29.3711 78.0049L28.9074 72.6162L32.6624 68.7236L27.2737 69.1873L23.3811 65.4322Z" fill="#FFD600"/>
</g>
<g clip-path="url(#clip3_265_2808)">
<path d="M16.9364 32.7358L17.1401 36.8976L20.4024 39.49L16.2405 39.6938L13.6481 42.956L13.4444 38.7941L10.1821 36.2018L14.344 35.998L16.9364 32.7358ZM18.7046 27.24L13.3304 34.0227L4.68631 34.4336L11.4691 39.8078L11.8799 48.4518L17.2541 41.6691L25.8982 41.2582L19.1154 35.884L18.7046 27.24Z" fill="#FFD600"/>
</g>
<g clip-path="url(#clip4_265_2808)">
<path d="M36.2582 16.9444L35.3087 21.5833L38.1687 25.3571L33.5298 24.4076L29.7561 27.2676L30.7056 22.6287L27.8456 18.8549L32.4845 19.8044L36.2582 16.9444ZM39.7547 11.3933L31.9257 17.3441L22.2944 15.3585L28.2453 23.1874L26.2596 32.8187L34.0886 26.8679L43.7199 28.8536L37.769 21.0246L39.7547 11.3933Z" fill="white"/>
</g>
<defs>
<clipPath id="clip0_265_2808">
<rect width="72.9253" height="72.9253" fill="white" transform="translate(40.6631) rotate(30.8437)"/>
</clipPath>
<clipPath id="clip1_265_2808">
<rect width="18.2313" height="18.2313" fill="white" transform="translate(8.5166 48.1602) rotate(-1.18928)"/>
</clipPath>
<clipPath id="clip2_265_2808">
<rect width="15.1928" height="15.1928" fill="white" transform="translate(16.251 68.1279) rotate(-25.4746)"/>
</clipPath>
<clipPath id="clip3_265_2808">
<rect width="24.3084" height="24.3084" fill="white" transform="translate(7.44482 22.5532) rotate(17.8349)"/>
</clipPath>
<clipPath id="clip4_265_2808">
<rect width="30.3855" height="30.3855" fill="white" transform="translate(28.6455 2.89966) rotate(32.2053)"/>
</clipPath>
</defs>
</svg>
