<svg width="754" height="179" viewBox="0 0 754 179" fill="none" xmlns="http://www.w3.org/2000/svg">
<g filter="url(#filter0_d_265_1518)">
<path d="M4.84 48V3.2H21.16C23.528 3.2 25.6613 3.69066 27.56 4.672C29.48 5.632 30.9947 7.01867 32.104 8.832C33.2347 10.624 33.8 12.7467 33.8 15.2C33.8 16.288 33.64 17.3867 33.32 18.496C33 19.6053 32.5093 20.608 31.848 21.504C31.1867 22.3787 30.3333 23.0293 29.288 23.456C30.6747 23.7973 31.8053 24.416 32.68 25.312C33.5547 26.208 34.2373 27.264 34.728 28.48C35.2187 29.6747 35.5493 30.9013 35.72 32.16C35.912 33.3973 36.008 34.5493 36.008 35.616C36.008 37.984 35.4213 40.096 34.248 41.952C33.0747 43.808 31.496 45.28 29.512 46.368C27.5493 47.456 25.3733 48 22.984 48H4.84ZM12.648 41.312H22.184C23.464 41.312 24.616 41.0027 25.64 40.384C26.664 39.7653 27.4853 38.912 28.104 37.824C28.7227 36.736 29.032 35.4987 29.032 34.112C29.032 32.9173 28.7227 31.7867 28.104 30.72C27.4853 29.6533 26.664 28.7893 25.64 28.128C24.616 27.4667 23.464 27.136 22.184 27.136H12.648V41.312ZM12.648 20.544H20.264C21.8427 20.544 23.1867 20.0533 24.296 19.072C25.4267 18.0907 25.992 16.7893 25.992 15.168C25.992 13.44 25.4267 12.1387 24.296 11.264C23.1867 10.368 21.8427 9.92 20.264 9.92H12.648V20.544ZM39.8745 48L39.8425 16H47.6505L47.6825 18.848C48.7705 17.696 50.0718 16.7893 51.5865 16.128C53.1012 15.4453 54.7332 15.104 56.4825 15.104C57.6558 15.104 58.8292 15.2747 60.0025 15.616L56.9305 23.488C56.1198 23.168 55.3092 23.008 54.4985 23.008C53.2398 23.008 52.0878 23.3173 51.0425 23.936C50.0185 24.5333 49.1972 25.3547 48.5785 26.4C47.9812 27.424 47.6825 28.5653 47.6825 29.824V48H39.8745ZM83.6605 16H91.4685V48H83.6605L83.3085 44.032C82.4338 45.4613 81.2712 46.624 79.8205 47.52C78.3912 48.3947 76.6952 48.832 74.7325 48.832C72.3645 48.832 70.1458 48.384 68.0765 47.488C66.0072 46.592 64.1832 45.3547 62.6045 43.776C61.0472 42.1973 59.8205 40.3733 58.9245 38.304C58.0498 36.2347 57.6125 34.016 57.6125 31.648C57.6125 29.3653 58.0285 27.2213 58.8605 25.216C59.7138 23.2107 60.8978 21.4507 62.4125 19.936C63.9272 18.4213 65.6765 17.2373 67.6605 16.384C69.6445 15.5307 71.7778 15.104 74.0605 15.104C76.1725 15.104 78.0605 15.5733 79.7245 16.512C81.4098 17.4507 82.8392 18.6453 84.0125 20.096L83.6605 16ZM74.5405 41.312C76.2045 41.312 77.6765 40.896 78.9565 40.064C80.2365 39.232 81.2392 38.112 81.9645 36.704C82.6898 35.2747 83.0525 33.7067 83.0525 32C83.0525 30.272 82.6898 28.704 81.9645 27.296C81.2392 25.8667 80.2258 24.736 78.9245 23.904C77.6445 23.072 76.1832 22.656 74.5405 22.656C72.8978 22.656 71.3938 23.0827 70.0285 23.936C68.6845 24.768 67.6072 25.888 66.7965 27.296C66.0072 28.704 65.6125 30.272 65.6125 32C65.6125 33.728 66.0178 35.296 66.8285 36.704C67.6392 38.112 68.7165 39.232 70.0605 40.064C71.4258 40.896 72.9192 41.312 74.5405 41.312ZM124.597 27.776V48H116.789V29.824C116.789 28.5653 116.48 27.424 115.861 26.4C115.242 25.3547 114.41 24.5333 113.365 23.936C112.341 23.3173 111.2 23.008 109.941 23.008C108.682 23.008 107.53 23.3173 106.485 23.936C105.461 24.5333 104.64 25.3547 104.021 26.4C103.424 27.424 103.125 28.5653 103.125 29.824V48H95.317L95.285 16H103.093L103.125 18.848C104.213 17.696 105.514 16.7893 107.029 16.128C108.544 15.4453 110.176 15.104 111.925 15.104C114.25 15.104 116.373 15.68 118.293 16.832C120.213 17.9627 121.738 19.488 122.869 21.408C124.021 23.3067 124.597 25.4293 124.597 27.776ZM151.98 -3.8147e-06H159.788V48H151.98V44C150.956 45.4293 149.665 46.592 148.108 47.488C146.55 48.384 144.748 48.832 142.7 48.832C140.374 48.832 138.198 48.3947 136.172 47.52C134.145 46.6453 132.353 45.44 130.796 43.904C129.26 42.3467 128.054 40.5547 127.18 38.528C126.305 36.5013 125.868 34.3253 125.868 32C125.868 29.6747 126.305 27.4987 127.18 25.472C128.054 23.4453 129.26 21.664 130.796 20.128C132.353 18.5707 134.145 17.3547 136.172 16.48C138.198 15.6053 140.374 15.168 142.7 15.168C144.748 15.168 146.55 15.616 148.108 16.512C149.665 17.3867 150.956 18.5493 151.98 20V-3.8147e-06ZM142.796 41.312C144.46 41.312 145.932 40.896 147.212 40.064C148.492 39.232 149.494 38.112 150.22 36.704C150.945 35.2747 151.308 33.7067 151.308 32C151.308 30.272 150.945 28.704 150.22 27.296C149.494 25.8667 148.481 24.736 147.18 23.904C145.9 23.072 144.438 22.656 142.796 22.656C141.153 22.656 139.649 23.0827 138.284 23.936C136.94 24.768 135.862 25.888 135.052 27.296C134.262 28.704 133.868 30.272 133.868 32C133.868 33.728 134.273 35.296 135.084 36.704C135.894 38.112 136.972 39.232 138.316 40.064C139.681 40.896 141.174 41.312 142.796 41.312ZM207.042 27.776V48H199.234V29.824C199.234 28.5653 198.925 27.424 198.306 26.4C197.687 25.3547 196.855 24.5333 195.81 23.936C194.786 23.3173 193.645 23.008 192.386 23.008C191.127 23.008 189.975 23.3173 188.93 23.936C187.906 24.5333 187.085 25.3547 186.466 26.4C185.869 27.424 185.57 28.5653 185.57 29.824V48H177.762L177.73 16H185.538L185.57 18.848C186.658 17.696 187.959 16.7893 189.474 16.128C190.989 15.4453 192.621 15.104 194.37 15.104C196.695 15.104 198.818 15.68 200.738 16.832C202.658 17.9627 204.183 19.488 205.314 21.408C206.466 23.3067 207.042 25.4293 207.042 27.776ZM224.313 48.832C221.369 48.832 218.681 48.0747 216.249 46.56C213.838 45.0453 211.907 43.008 210.457 40.448C209.027 37.888 208.313 35.0613 208.313 31.968C208.313 29.6427 208.729 27.4667 209.561 25.44C210.393 23.392 211.534 21.6 212.985 20.064C214.457 18.5067 216.163 17.2907 218.105 16.416C220.046 15.5413 222.115 15.104 224.313 15.104C226.809 15.104 229.091 15.6373 231.161 16.704C233.251 17.7493 235.022 19.1893 236.473 21.024C237.923 22.8587 238.979 24.9493 239.641 27.296C240.302 29.6427 240.451 32.096 240.089 34.656H216.697C216.995 35.8507 217.486 36.928 218.169 37.888C218.851 38.8267 219.715 39.584 220.761 40.16C221.806 40.7147 222.99 41.0027 224.313 41.024C225.678 41.0453 226.915 40.7253 228.025 40.064C229.155 39.3813 230.094 38.464 230.841 37.312L238.809 39.168C237.507 42.0053 235.566 44.3307 232.985 46.144C230.403 47.936 227.513 48.832 224.313 48.832ZM216.441 28.8H232.185C231.95 27.52 231.449 26.368 230.681 25.344C229.934 24.2987 229.006 23.4667 227.897 22.848C226.787 22.2293 225.593 21.92 224.313 21.92C223.033 21.92 221.849 22.2293 220.761 22.848C219.673 23.4453 218.745 24.2667 217.977 25.312C217.23 26.336 216.718 27.4987 216.441 28.8ZM257.747 48H250.003L239.315 16H246.963L253.907 36.704L260.819 16H268.531L275.443 36.704L282.387 16H290.035L279.347 48H271.603L264.659 27.2L257.747 48Z" fill="#A790CF"/>
<path d="M210.84 109V64.2H218.648V109H210.84ZM254.069 88.776V109H246.261V90.824C246.261 89.5653 245.952 88.424 245.333 87.4C244.715 86.3547 243.883 85.5333 242.837 84.936C241.813 84.3173 240.672 84.008 239.413 84.008C238.155 84.008 237.003 84.3173 235.957 84.936C234.933 85.5333 234.112 86.3547 233.493 87.4C232.896 88.424 232.597 89.5653 232.597 90.824V109H224.789L224.757 77H232.565L232.597 79.848C233.685 78.696 234.987 77.7893 236.501 77.128C238.016 76.4453 239.648 76.104 241.397 76.104C243.723 76.104 245.845 76.68 247.765 77.832C249.685 78.9627 251.211 80.488 252.341 82.408C253.493 84.3067 254.069 86.4293 254.069 88.776ZM275.037 84.808H268.829V109H261.021V84.808H256.285V77H261.021V66.952H268.829V77H275.037V84.808ZM291.593 109.832C288.649 109.832 285.961 109.075 283.529 107.56C281.118 106.045 279.187 104.008 277.737 101.448C276.307 98.888 275.593 96.0613 275.593 92.968C275.593 90.6427 276.009 88.4667 276.841 86.44C277.673 84.392 278.814 82.6 280.265 81.064C281.737 79.5067 283.443 78.2907 285.385 77.416C287.326 76.5413 289.395 76.104 291.593 76.104C294.089 76.104 296.371 76.6373 298.441 77.704C300.531 78.7493 302.302 80.1893 303.753 82.024C305.203 83.8587 306.259 85.9493 306.921 88.296C307.582 90.6427 307.731 93.096 307.369 95.656H283.977C284.275 96.8507 284.766 97.928 285.449 98.888C286.131 99.8267 286.995 100.584 288.041 101.16C289.086 101.715 290.27 102.003 291.593 102.024C292.958 102.045 294.195 101.725 295.305 101.064C296.435 100.381 297.374 99.464 298.121 98.312L306.089 100.168C304.787 103.005 302.846 105.331 300.265 107.144C297.683 108.936 294.793 109.832 291.593 109.832ZM283.721 89.8H299.465C299.23 88.52 298.729 87.368 297.961 86.344C297.214 85.2987 296.286 84.4667 295.177 83.848C294.067 83.2293 292.873 82.92 291.593 82.92C290.313 82.92 289.129 83.2293 288.041 83.848C286.953 84.4453 286.025 85.2667 285.257 86.312C284.51 87.336 283.998 88.4987 283.721 89.8ZM310.047 109L310.015 77H317.823L317.855 79.848C318.943 78.696 320.244 77.7893 321.759 77.128C323.274 76.4453 324.906 76.104 326.655 76.104C327.828 76.104 329.002 76.2747 330.175 76.616L327.103 84.488C326.292 84.168 325.482 84.008 324.671 84.008C323.412 84.008 322.26 84.3173 321.215 84.936C320.191 85.5333 319.37 86.3547 318.751 87.4C318.154 88.424 317.855 89.5653 317.855 90.824V109H310.047ZM353.833 77H361.641V109H353.833L353.481 105.032C352.606 106.461 351.444 107.624 349.993 108.52C348.564 109.395 346.868 109.832 344.905 109.832C342.537 109.832 340.318 109.384 338.249 108.488C336.18 107.592 334.356 106.355 332.777 104.776C331.22 103.197 329.993 101.373 329.097 99.304C328.222 97.2347 327.785 95.016 327.785 92.648C327.785 90.3653 328.201 88.2213 329.033 86.216C329.886 84.2107 331.07 82.4507 332.585 80.936C334.1 79.4213 335.849 78.2373 337.833 77.384C339.817 76.5307 341.95 76.104 344.233 76.104C346.345 76.104 348.233 76.5733 349.897 77.512C351.582 78.4507 353.012 79.6453 354.185 81.096L353.833 77ZM344.713 102.312C346.377 102.312 347.849 101.896 349.129 101.064C350.409 100.232 351.412 99.112 352.137 97.704C352.862 96.2747 353.225 94.7067 353.225 93C353.225 91.272 352.862 89.704 352.137 88.296C351.412 86.8667 350.398 85.736 349.097 84.904C347.817 84.072 346.356 83.656 344.713 83.656C343.07 83.656 341.566 84.0827 340.201 84.936C338.857 85.768 337.78 86.888 336.969 88.296C336.18 89.704 335.785 91.272 335.785 93C335.785 94.728 336.19 96.296 337.001 97.704C337.812 99.112 338.889 100.232 340.233 101.064C341.598 101.896 343.092 102.312 344.713 102.312ZM384.672 99.368L391.712 103.176C390.24 105.181 388.395 106.792 386.176 108.008C383.958 109.224 381.536 109.832 378.912 109.832C375.968 109.832 373.28 109.075 370.848 107.56C368.438 106.045 366.507 104.019 365.056 101.48C363.627 98.92 362.912 96.0933 362.912 93C362.912 90.6533 363.328 88.4667 364.16 86.44C364.992 84.392 366.134 82.6 367.584 81.064C369.056 79.5067 370.763 78.2907 372.704 77.416C374.646 76.5413 376.715 76.104 378.912 76.104C381.536 76.104 383.958 76.712 386.176 77.928C388.395 79.144 390.24 80.776 391.712 82.824L384.672 86.6C383.926 85.7467 383.04 85.0853 382.016 84.616C381.014 84.1467 379.979 83.912 378.912 83.912C377.376 83.912 375.99 84.3387 374.752 85.192C373.515 86.024 372.534 87.1333 371.808 88.52C371.083 89.8853 370.72 91.3787 370.72 93C370.72 94.6 371.083 96.0933 371.808 97.48C372.534 98.8453 373.515 99.944 374.752 100.776C375.99 101.608 377.376 102.024 378.912 102.024C380.022 102.024 381.078 101.789 382.08 101.32C383.083 100.829 383.947 100.179 384.672 99.368ZM412.049 84.808H405.841V109H398.033V84.808H393.297V77H398.033V66.952H405.841V77H412.049V84.808ZM414.775 77H422.583V109H414.775V77ZM418.743 72.872C417.591 72.872 416.62 72.4987 415.831 71.752C415.042 70.984 414.647 70.024 414.647 68.872C414.647 67.7413 415.042 66.792 415.831 66.024C416.62 65.256 417.58 64.872 418.711 64.872C419.842 64.872 420.791 65.256 421.559 66.024C422.348 66.792 422.743 67.7413 422.743 68.872C422.743 70.024 422.359 70.984 421.591 71.752C420.823 72.4987 419.874 72.872 418.743 72.872ZM446.523 109H436.443L424.795 76.968H433.115L441.499 100.008L449.851 76.968H458.171L446.523 109ZM473.173 109.832C470.229 109.832 467.541 109.075 465.109 107.56C462.698 106.045 460.767 104.008 459.317 101.448C457.887 98.888 457.173 96.0613 457.173 92.968C457.173 90.6427 457.589 88.4667 458.421 86.44C459.253 84.392 460.394 82.6 461.845 81.064C463.317 79.5067 465.023 78.2907 466.965 77.416C468.906 76.5413 470.975 76.104 473.173 76.104C475.669 76.104 477.951 76.6373 480.021 77.704C482.111 78.7493 483.882 80.1893 485.333 82.024C486.783 83.8587 487.839 85.9493 488.501 88.296C489.162 90.6427 489.311 93.096 488.949 95.656H465.557C465.855 96.8507 466.346 97.928 467.029 98.888C467.711 99.8267 468.575 100.584 469.621 101.16C470.666 101.715 471.85 102.003 473.173 102.024C474.538 102.045 475.775 101.725 476.885 101.064C478.015 100.381 478.954 99.464 479.701 98.312L487.669 100.168C486.367 103.005 484.426 105.331 481.845 107.144C479.263 108.936 476.373 109.832 473.173 109.832ZM465.301 89.8H481.045C480.81 88.52 480.309 87.368 479.541 86.344C478.794 85.2987 477.866 84.4667 476.757 83.848C475.647 83.2293 474.453 82.92 473.173 82.92C471.893 82.92 470.709 83.2293 469.621 83.848C468.533 84.4453 467.605 85.2667 466.837 86.312C466.09 87.336 465.578 88.4987 465.301 89.8Z" fill="#4560BE"/>
<path d="M432.872 170.832C429.288 170.832 426.141 169.957 423.432 168.208C420.744 166.459 418.653 164.112 417.16 161.168C415.667 158.203 414.92 154.917 414.92 151.312V125.2H422.728V151.312C422.728 153.445 423.123 155.408 423.912 157.2C424.723 158.971 425.875 160.389 427.368 161.456C428.883 162.501 430.717 163.024 432.872 163.024C435.048 163.024 436.883 162.501 438.376 161.456C439.869 160.389 441 158.971 441.768 157.2C442.557 155.408 442.952 153.445 442.952 151.312V125.2H450.76V151.312C450.76 154.021 450.333 156.56 449.48 158.928C448.627 161.275 447.411 163.344 445.832 165.136C444.253 166.928 442.365 168.325 440.168 169.328C437.992 170.331 435.56 170.832 432.872 170.832ZM455.11 170V122H462.918V170H455.11ZM485.202 145.808H478.994V170H471.186V145.808H466.45V138H471.186V127.952H478.994V138H485.202V145.808ZM488.459 170L488.427 138H496.235L496.267 140.848C497.355 139.696 498.657 138.789 500.171 138.128C501.686 137.445 503.318 137.104 505.067 137.104C506.241 137.104 507.414 137.275 508.587 137.616L505.515 145.488C504.705 145.168 503.894 145.008 503.083 145.008C501.825 145.008 500.673 145.317 499.627 145.936C498.603 146.533 497.782 147.355 497.163 148.4C496.566 149.424 496.267 150.565 496.267 151.824V170H488.459ZM532.245 138H540.053V170H532.245L531.893 166.032C531.019 167.461 529.856 168.624 528.405 169.52C526.976 170.395 525.28 170.832 523.317 170.832C520.949 170.832 518.731 170.384 516.661 169.488C514.592 168.592 512.768 167.355 511.189 165.776C509.632 164.197 508.405 162.373 507.509 160.304C506.635 158.235 506.197 156.016 506.197 153.648C506.197 151.365 506.613 149.221 507.445 147.216C508.299 145.211 509.483 143.451 510.997 141.936C512.512 140.421 514.261 139.237 516.245 138.384C518.229 137.531 520.363 137.104 522.645 137.104C524.757 137.104 526.645 137.573 528.309 138.512C529.995 139.451 531.424 140.645 532.597 142.096L532.245 138ZM523.125 163.312C524.789 163.312 526.261 162.896 527.541 162.064C528.821 161.232 529.824 160.112 530.549 158.704C531.275 157.275 531.637 155.707 531.637 154C531.637 152.272 531.275 150.704 530.549 149.296C529.824 147.867 528.811 146.736 527.509 145.904C526.229 145.072 524.768 144.656 523.125 144.656C521.483 144.656 519.979 145.083 518.613 145.936C517.269 146.768 516.192 147.888 515.381 149.296C514.592 150.704 514.197 152.272 514.197 154C514.197 155.728 514.603 157.296 515.413 158.704C516.224 160.112 517.301 161.232 518.645 162.064C520.011 162.896 521.504 163.312 523.125 163.312ZM543.87 170V138H551.678V140.848C552.766 139.696 554.067 138.789 555.582 138.128C557.097 137.445 558.729 137.104 560.478 137.104C562.697 137.104 564.734 137.627 566.59 138.672C568.467 139.717 569.961 141.115 571.07 142.864C572.201 141.115 573.694 139.717 575.55 138.672C577.406 137.627 579.443 137.104 581.662 137.104C584.009 137.104 586.131 137.68 588.03 138.832C589.95 139.963 591.475 141.488 592.606 143.408C593.758 145.307 594.334 147.429 594.334 149.776V170H586.526V151.856C586.526 150.619 586.217 149.488 585.598 148.464C585.001 147.419 584.19 146.587 583.166 145.968C582.163 145.328 581.033 145.008 579.774 145.008C578.515 145.008 577.374 145.317 576.35 145.936C575.347 146.533 574.537 147.344 573.918 148.368C573.299 149.392 572.99 150.555 572.99 151.856V170H565.182V151.856C565.182 150.555 564.883 149.392 564.286 148.368C563.689 147.344 562.878 146.533 561.854 145.936C560.83 145.317 559.689 145.008 558.43 145.008C557.193 145.008 556.062 145.328 555.038 145.968C554.014 146.587 553.193 147.419 552.574 148.464C551.977 149.488 551.678 150.619 551.678 151.856V170H543.87ZM611.64 170.832C608.696 170.832 606.008 170.075 603.576 168.56C601.165 167.045 599.235 165.019 597.784 162.48C596.355 159.92 595.64 157.093 595.64 154C595.64 151.653 596.056 149.467 596.888 147.44C597.72 145.392 598.861 143.6 600.312 142.064C601.784 140.507 603.491 139.291 605.432 138.416C607.373 137.541 609.443 137.104 611.64 137.104C614.584 137.104 617.261 137.861 619.672 139.376C622.104 140.891 624.035 142.928 625.464 145.488C626.915 148.048 627.64 150.885 627.64 154C627.64 156.325 627.224 158.501 626.392 160.528C625.56 162.555 624.408 164.347 622.936 165.904C621.485 167.44 619.789 168.645 617.848 169.52C615.928 170.395 613.859 170.832 611.64 170.832ZM611.64 163.024C613.197 163.024 614.595 162.608 615.832 161.776C617.069 160.944 618.04 159.845 618.744 158.48C619.469 157.115 619.832 155.621 619.832 154C619.832 152.336 619.459 150.821 618.712 149.456C617.987 148.069 616.995 146.971 615.736 146.16C614.499 145.328 613.133 144.912 611.64 144.912C610.104 144.912 608.717 145.328 607.48 146.16C606.243 146.992 605.261 148.101 604.536 149.488C603.811 150.875 603.448 152.379 603.448 154C603.448 155.685 603.821 157.211 604.568 158.576C605.315 159.941 606.307 161.029 607.544 161.84C608.803 162.629 610.168 163.024 611.64 163.024ZM654.379 122H662.187V170H654.379V166C653.355 167.429 652.065 168.592 650.507 169.488C648.95 170.384 647.147 170.832 645.099 170.832C642.774 170.832 640.598 170.395 638.571 169.52C636.545 168.645 634.753 167.44 633.195 165.904C631.659 164.347 630.454 162.555 629.579 160.528C628.705 158.501 628.267 156.325 628.267 154C628.267 151.675 628.705 149.499 629.579 147.472C630.454 145.445 631.659 143.664 633.195 142.128C634.753 140.571 636.545 139.355 638.571 138.48C640.598 137.605 642.774 137.168 645.099 137.168C647.147 137.168 648.95 137.616 650.507 138.512C652.065 139.387 653.355 140.549 654.379 142V122ZM645.195 163.312C646.859 163.312 648.331 162.896 649.611 162.064C650.891 161.232 651.894 160.112 652.619 158.704C653.345 157.275 653.707 155.707 653.707 154C653.707 152.272 653.345 150.704 652.619 149.296C651.894 147.867 650.881 146.736 649.579 145.904C648.299 145.072 646.838 144.656 645.195 144.656C643.553 144.656 642.049 145.083 640.683 145.936C639.339 146.768 638.262 147.888 637.451 149.296C636.662 150.704 636.267 152.272 636.267 154C636.267 155.728 636.673 157.296 637.483 158.704C638.294 160.112 639.371 161.232 640.715 162.064C642.081 162.896 643.574 163.312 645.195 163.312ZM680.895 170.832C677.951 170.832 675.263 170.075 672.831 168.56C670.42 167.045 668.49 165.008 667.039 162.448C665.61 159.888 664.895 157.061 664.895 153.968C664.895 151.643 665.311 149.467 666.143 147.44C666.975 145.392 668.116 143.6 669.567 142.064C671.039 140.507 672.746 139.291 674.687 138.416C676.628 137.541 678.698 137.104 680.895 137.104C683.391 137.104 685.674 137.637 687.743 138.704C689.834 139.749 691.604 141.189 693.055 143.024C694.506 144.859 695.562 146.949 696.223 149.296C696.884 151.643 697.034 154.096 696.671 156.656H673.279C673.578 157.851 674.068 158.928 674.751 159.888C675.434 160.827 676.298 161.584 677.343 162.16C678.388 162.715 679.572 163.003 680.895 163.024C682.26 163.045 683.498 162.725 684.607 162.064C685.738 161.381 686.676 160.464 687.423 159.312L695.391 161.168C694.09 164.005 692.148 166.331 689.567 168.144C686.986 169.936 684.095 170.832 680.895 170.832ZM673.023 150.8H688.767C688.532 149.52 688.031 148.368 687.263 147.344C686.516 146.299 685.588 145.467 684.479 144.848C683.37 144.229 682.175 143.92 680.895 143.92C679.615 143.92 678.431 144.229 677.343 144.848C676.255 145.445 675.327 146.267 674.559 147.312C673.812 148.336 673.3 149.499 673.023 150.8ZM699.349 170L699.317 138H707.125L707.157 140.848C708.245 139.696 709.547 138.789 711.061 138.128C712.576 137.445 714.208 137.104 715.957 137.104C717.131 137.104 718.304 137.275 719.477 137.616L716.405 145.488C715.595 145.168 714.784 145.008 713.973 145.008C712.715 145.008 711.563 145.317 710.517 145.936C709.493 146.533 708.672 147.355 708.053 148.4C707.456 149.424 707.157 150.565 707.157 151.824V170H699.349ZM749.944 149.776V170H742.136V151.824C742.136 150.565 741.827 149.424 741.208 148.4C740.59 147.355 739.758 146.533 738.712 145.936C737.688 145.317 736.547 145.008 735.288 145.008C734.03 145.008 732.878 145.317 731.832 145.936C730.808 146.533 729.987 147.355 729.368 148.4C728.771 149.424 728.472 150.565 728.472 151.824V170H720.664L720.632 138H728.44L728.472 140.848C729.56 139.696 730.862 138.789 732.376 138.128C733.891 137.445 735.523 137.104 737.272 137.104C739.598 137.104 741.72 137.68 743.64 138.832C745.56 139.963 747.086 141.488 748.216 143.408C749.368 145.307 749.944 147.429 749.944 149.776Z" fill="#C574F7"/>
</g>
<defs>
<filter id="filter0_d_265_1518" x="0.839996" y="0" width="753.104" height="178.832" filterUnits="userSpaceOnUse" color-interpolation-filters="sRGB">
<feFlood flood-opacity="0" result="BackgroundImageFix"/>
<feColorMatrix in="SourceAlpha" type="matrix" values="0 0 0 0 0 0 0 0 0 0 0 0 0 0 0 0 0 0 127 0" result="hardAlpha"/>
<feOffset dy="4"/>
<feGaussianBlur stdDeviation="2"/>
<feComposite in2="hardAlpha" operator="out"/>
<feColorMatrix type="matrix" values="0 0 0 0 0 0 0 0 0 0 0 0 0 0 0 0 0 0 0.25 0"/>
<feBlend mode="normal" in2="BackgroundImageFix" result="effect1_dropShadow_265_1518"/>
<feBlend mode="normal" in="SourceGraphic" in2="effect1_dropShadow_265_1518" result="shape"/>
</filter>
</defs>
</svg>
